{"glyphs":{"0":{"ha":769,"x_min":29,"x_max":739,"o":"m 739 334 l 739 334 q 727 237 739 284 q 691 149 714 189 q 635 74 667 108 q 563 17 603 41 q 479 -21 524 -7 q 384 -34 433 -34 l 384 -34 q 290 -21 335 -34 q 205 17 245 -7 q 134 74 166 41 q 78 149 101 108 q 42 237 55 189 q 29 334 29 284 l 29 334 q 42 432 29 385 q 78 520 55 479 q 134 595 101 561 q 205 652 166 628 q 290 689 245 676 q 384 703 335 703 l 384 703 q 479 689 433 703 q 563 652 524 676 q 635 595 603 628 q 691 520 667 561 q 727 432 714 479 q 739 334 739 385 z m 703 334 l 703 334 q 691 422 703 380 q 659 502 680 465 q 609 569 639 539 q 545 621 580 599 q 469 654 510 642 q 384 666 428 666 l 384 666 q 300 654 340 666 q 224 621 259 642 q 159 569 188 599 q 110 502 130 539 q 77 422 89 465 q 66 334 66 380 l 66 334 q 77 247 66 289 q 110 167 89 204 q 159 100 130 130 q 224 48 188 70 q 300 15 259 27 q 384 3 340 3 l 384 3 q 469 15 428 3 q 545 48 510 27 q 609 100 580 70 q 659 167 639 130 q 691 246 680 204 q 703 334 703 289 z"},"1":{"ha":330,"x_min":24,"x_max":284,"o":"m 284 662 l 284 662 q 275 621 284 642 q 257 583 266 601 l 257 583 q 257 506 257 549 q 257 417 257 463 q 257 321 257 370 q 256 226 256 272 q 256 139 256 180 q 256 68 256 99 q 255 19 255 37 q 255 0 255 1 l 255 0 q 250 -13 255 -8 q 237 -19 245 -19 l 237 -19 q 224 -13 229 -19 q 219 0 219 -8 l 219 0 q 219 27 219 1 q 219 94 219 52 q 219 190 219 136 q 219 302 219 244 q 220 417 220 360 q 220 523 220 475 l 220 523 q 166 461 195 489 q 113 412 138 433 q 72 381 88 392 q 53 368 55 369 l 53 368 q 43 365 47 365 l 43 365 q 30 370 36 365 q 24 383 24 375 l 24 383 q 33 399 24 393 l 33 399 q 43 406 34 399 q 69 425 53 413 q 104 454 84 437 q 145 492 125 471 q 186 539 166 514 q 220 592 205 564 l 220 592 q 220 609 220 600 q 220 628 220 619 q 220 646 220 638 q 220 661 220 655 l 220 661 q 229 693 221 683 q 251 703 237 703 l 251 703 q 275 690 266 703 q 284 662 284 678 z"},"2":{"ha":792,"x_min":0,"x_max":865,"o":"m 861 83 l 861 83 q 854 75 860 82 q 833 57 847 67 q 800 34 820 46 q 753 12 780 22 q 693 -5 727 2 q 617 -12 659 -12 l 617 -12 q 545 -6 581 -12 q 474 9 509 0 q 404 28 438 18 q 337 49 370 39 l 337 49 q 218 4 275 19 q 115 -10 161 -10 l 115 -10 q 63 -4 85 -10 q 27 12 42 2 q 7 35 13 22 q 0 62 0 48 l 0 62 q 7 88 0 75 q 27 112 14 102 q 62 129 41 123 q 111 136 83 136 l 111 136 q 157 132 132 136 q 211 122 183 128 q 270 107 239 115 q 333 88 301 98 l 333 88 q 401 129 367 106 q 468 180 436 152 q 528 241 500 208 q 576 310 556 273 q 609 386 597 346 q 621 469 621 426 l 621 469 q 604 562 621 521 q 555 632 586 604 q 480 676 524 661 q 383 691 437 691 l 383 691 q 327 685 356 691 q 269 668 297 679 q 214 639 240 656 q 167 600 188 622 q 136 550 147 577 q 124 489 124 522 l 124 489 q 128 450 124 468 q 137 418 132 432 q 146 396 142 404 q 151 386 150 388 l 151 386 q 153 377 153 381 l 153 377 q 148 364 153 370 q 135 358 144 358 l 135 358 q 119 368 124 358 l 119 368 q 114 378 119 368 q 103 404 109 387 q 92 442 97 420 q 87 490 87 464 l 87 490 q 100 558 87 526 q 134 617 112 590 q 184 664 155 644 q 246 699 213 685 q 315 721 279 713 q 385 728 351 728 l 385 728 q 496 710 446 728 q 582 658 546 691 q 638 576 618 624 q 658 469 658 528 l 658 469 q 638 358 658 414 q 581 251 618 302 q 494 155 545 200 q 383 74 444 109 l 383 74 q 448 55 416 64 q 510 39 480 46 q 566 29 540 33 q 616 25 593 25 l 616 25 q 712 37 671 25 q 779 64 752 49 q 818 92 805 79 q 833 106 832 104 l 833 106 q 847 113 838 113 l 847 113 q 860 107 855 113 q 865 94 865 102 l 865 94 q 861 83 865 88 z m 283 65 l 283 65 q 190 89 234 79 q 115 99 146 99 l 115 99 q 82 96 96 99 q 57 87 67 92 q 42 75 47 82 q 37 62 37 68 l 37 62 q 41 50 37 56 q 55 39 45 43 q 79 31 64 34 q 115 27 94 27 l 115 27 q 193 37 150 27 q 283 65 236 46 z"},"3":{"ha":599,"x_min":20,"x_max":569,"o":"m 403 368 l 403 368 q 467 339 437 356 q 520 298 497 322 q 556 243 542 274 q 569 174 569 212 l 569 174 q 557 101 569 133 q 524 43 545 68 q 475 1 503 19 q 416 -28 447 -17 q 352 -45 385 -40 q 288 -50 319 -50 l 288 -50 q 208 -43 245 -50 q 143 -26 172 -36 q 92 -3 114 -15 q 55 20 70 9 q 32 38 40 31 q 24 46 25 46 l 24 46 q 20 59 20 51 l 20 59 q 25 72 20 66 q 38 77 30 77 l 38 77 q 51 71 46 77 l 51 71 q 58 65 51 71 q 78 50 64 59 q 111 29 91 40 q 157 9 131 18 q 216 -7 184 -1 q 288 -14 249 -14 l 288 -14 q 385 -1 340 -14 q 462 35 429 11 q 514 94 495 59 q 532 173 532 129 l 532 173 q 518 237 532 209 q 479 286 503 265 q 420 321 454 307 q 350 344 387 335 l 350 344 q 284 325 319 333 q 215 318 249 318 l 215 318 q 159 328 176 318 q 143 353 143 337 l 143 353 q 145 363 143 356 q 156 376 146 370 q 184 388 165 383 q 237 393 203 393 l 237 393 q 289 391 261 393 q 348 382 317 388 l 348 382 q 411 415 384 396 q 456 455 438 434 q 483 497 474 476 q 492 536 492 518 l 492 536 q 479 591 492 567 q 444 632 466 615 q 395 657 423 648 q 336 666 366 666 l 336 666 q 258 656 294 666 q 193 631 222 646 q 141 599 164 617 q 103 567 118 582 q 80 543 88 553 q 72 533 72 533 l 72 533 q 65 527 69 529 q 57 525 61 525 l 57 525 q 44 531 49 525 q 39 543 39 536 l 39 543 q 42 554 39 549 l 42 554 q 52 566 43 555 q 78 594 61 578 q 120 630 95 611 q 177 665 145 649 q 249 692 209 681 q 335 703 288 703 l 335 703 q 406 692 372 703 q 468 660 441 681 q 512 607 496 639 q 529 535 529 576 l 529 535 q 520 489 529 512 q 494 444 511 466 q 455 403 478 422 q 403 368 432 383 z m 293 360 l 293 360 q 251 363 274 363 l 251 363 q 214 361 231 363 q 190 354 197 358 l 190 354 q 203 351 195 352 q 220 351 210 351 l 220 351 q 257 353 237 351 q 293 360 277 356 z"},"4":{"ha":801,"x_min":10,"x_max":791,"o":"m 791 208 l 791 208 q 785 196 791 201 q 772 191 780 191 l 772 191 q 757 192 771 191 q 718 193 743 192 q 657 195 692 194 q 577 196 621 195 l 577 196 q 576 87 576 141 q 576 -14 576 34 l 576 -14 q 570 -27 576 -21 q 557 -32 565 -32 l 557 -32 q 544 -27 549 -32 q 539 -15 539 -22 l 539 -15 q 539 12 539 -7 q 539 60 539 32 q 540 122 540 87 q 541 196 540 157 l 541 196 q 422 195 485 196 q 290 191 359 194 l 290 191 q 162 184 227 188 q 28 173 96 180 l 28 173 q 15 178 21 173 q 10 191 10 183 l 10 191 q 20 208 10 202 l 20 208 q 44 221 21 208 q 106 258 67 233 q 197 320 145 283 q 309 404 250 356 q 430 511 368 452 q 554 640 493 570 l 554 640 q 557 669 555 657 q 561 688 559 682 l 561 688 q 573 712 566 703 q 585 726 579 722 q 597 732 592 731 q 607 734 603 734 l 607 734 q 629 725 620 734 q 638 701 638 715 l 638 701 q 633 682 638 692 q 621 663 628 672 q 605 643 614 653 q 589 625 597 634 l 589 625 q 585 552 587 595 q 582 458 583 509 q 579 349 581 407 q 578 233 578 292 l 578 233 q 657 232 622 232 q 719 230 693 231 q 759 229 745 229 q 773 228 773 228 l 773 228 q 786 222 782 228 q 791 208 791 216 z m 550 581 l 550 581 q 425 456 488 513 q 304 354 362 399 q 196 274 246 308 q 109 217 146 239 l 109 217 q 227 225 168 222 q 339 229 285 228 q 445 232 394 231 q 541 233 496 233 l 541 233 q 542 324 541 277 q 544 416 543 371 q 546 503 545 461 q 550 581 548 545 z"},"5":{"ha":647,"x_min":-10,"x_max":613,"o":"m 613 184 l 613 184 q 599 105 613 140 q 559 43 584 70 q 500 -3 534 16 q 425 -34 465 -22 q 340 -52 384 -47 q 250 -58 295 -58 l 250 -58 q 160 -50 201 -58 q 86 -30 119 -42 q 31 -4 54 -18 q -4 20 8 9 l -4 20 q -9 25 -7 22 q -10 32 -10 28 l -10 32 q -4 45 -10 40 q 9 51 1 51 l 9 51 q 16 50 13 51 q 22 46 19 48 l 22 46 q 48 30 30 41 q 94 6 65 18 q 160 -14 122 -5 q 247 -23 199 -23 l 247 -23 q 328 -19 288 -23 q 405 -5 368 -15 q 473 21 441 5 q 527 61 504 38 q 563 114 550 83 q 576 184 576 145 l 576 184 q 557 263 576 229 q 504 320 539 297 q 419 354 469 342 q 308 365 370 365 l 308 365 q 228 361 261 365 q 172 352 194 357 q 135 342 149 347 q 113 333 121 336 l 113 333 q 104 329 109 331 q 94 327 99 327 l 94 327 q 81 332 86 327 q 77 346 76 338 l 77 346 l 91 672 q 97 685 92 680 q 111 690 103 690 l 111 690 q 134 689 118 690 q 171 688 150 688 q 212 686 191 687 q 250 686 233 686 l 250 686 q 364 688 312 686 q 454 694 416 691 q 514 699 492 697 q 538 702 536 702 l 538 702 q 551 697 545 702 q 556 685 556 692 l 556 685 q 552 672 556 678 q 540 666 547 667 l 540 666 q 517 663 540 666 q 456 657 495 660 q 364 651 417 654 q 250 648 311 648 l 250 648 q 190 649 220 648 q 127 652 159 650 l 127 652 l 115 372 q 147 382 128 376 q 190 392 166 387 q 244 399 215 396 q 307 402 273 402 l 307 402 q 424 389 369 402 q 522 350 480 377 q 589 282 564 324 q 613 184 613 241 z"},"6":{"ha":722,"x_min":34,"x_max":693,"o":"m 434 459 l 434 459 q 531 445 484 459 q 614 402 578 431 q 671 331 649 374 q 693 231 693 288 l 693 231 q 666 127 693 175 q 594 45 640 80 q 490 -9 549 11 q 367 -28 432 -28 l 367 -28 q 284 -19 325 -28 q 206 9 243 -9 q 137 54 168 27 q 83 114 106 80 q 47 187 60 147 q 34 273 34 228 l 34 273 q 54 403 34 339 q 112 522 75 466 q 200 623 149 578 q 314 694 252 667 l 314 694 q 381 718 350 709 q 436 730 412 726 q 475 735 460 734 q 492 735 490 735 l 492 735 q 505 730 500 735 q 510 717 510 725 l 510 717 q 505 704 510 709 q 492 698 500 698 l 492 698 q 478 698 491 698 q 442 693 464 697 q 390 682 419 689 q 328 660 360 674 l 328 660 q 226 596 273 636 q 145 506 179 557 q 91 396 110 456 q 71 274 71 337 l 71 274 q 86 186 71 225 q 124 117 100 147 q 178 67 147 88 q 242 34 209 47 q 307 15 275 21 q 367 9 340 9 l 367 9 q 477 25 424 9 q 569 72 529 42 q 633 143 609 102 q 656 232 656 184 l 656 232 q 636 320 656 284 q 583 379 615 356 q 511 412 550 402 q 433 422 471 422 l 433 422 q 339 408 383 422 q 259 369 294 394 q 198 311 223 344 q 164 238 174 277 l 164 238 q 157 228 163 232 q 146 224 152 224 l 146 224 q 133 230 138 224 q 127 243 127 235 l 127 243 q 128 249 127 245 l 128 249 q 168 332 140 293 q 236 399 196 371 q 327 443 276 427 q 434 459 377 459 z"},"7":{"ha":646,"x_min":0,"x_max":646,"o":"m 627 685 l 627 685 q 640 679 634 685 q 646 666 646 674 l 646 666 q 639 652 646 658 l 639 652 q 625 639 639 651 q 588 605 611 627 q 532 549 564 582 q 462 473 500 516 q 385 379 425 431 q 303 266 344 327 q 222 137 262 206 q 147 -8 182 68 l 147 -8 q 130 -19 142 -19 l 130 -19 q 117 -13 122 -19 q 112 0 112 -7 l 112 0 q 114 8 112 4 l 114 8 q 190 155 149 85 q 272 286 230 225 q 355 401 314 348 q 435 497 397 454 q 505 575 473 541 q 562 632 538 608 l 562 632 q 461 619 513 623 q 359 615 410 615 l 359 615 q 273 617 315 615 q 194 623 231 620 q 125 631 156 626 q 69 639 93 635 q 31 645 45 643 q 15 648 17 648 l 15 648 q 4 655 8 649 q 0 667 0 660 l 0 667 q 6 680 0 674 q 19 685 11 685 l 19 685 q 35 683 21 685 q 72 677 49 680 q 126 668 95 673 q 195 660 158 664 q 274 654 232 657 q 361 652 316 652 l 361 652 q 495 659 428 652 q 622 684 563 666 l 622 684 q 627 685 625 685 z"},"8":{"ha":657,"x_min":29,"x_max":628,"o":"m 628 173 l 628 173 q 615 104 628 135 q 579 50 602 74 q 525 9 556 26 q 461 -19 495 -8 q 390 -35 426 -30 q 320 -41 354 -41 l 320 -41 q 261 -38 293 -41 q 197 -28 229 -35 q 134 -7 165 -20 q 81 29 104 7 q 43 82 58 50 q 29 155 29 113 l 29 155 q 39 208 29 184 q 65 254 48 233 q 105 293 82 275 q 155 327 128 311 q 211 356 182 342 q 271 382 241 370 l 271 382 q 209 408 239 393 q 155 446 179 424 q 117 496 131 467 q 103 562 103 524 l 103 562 q 121 628 103 598 q 172 681 139 659 q 253 715 206 703 q 358 727 300 727 l 358 727 q 425 720 396 727 q 478 701 455 713 q 517 673 500 688 q 543 639 533 657 q 558 604 553 622 q 563 570 563 586 l 563 570 q 551 514 563 539 q 517 467 540 488 q 461 426 495 445 q 383 388 427 406 l 383 388 q 628 173 628 324 z m 526 570 l 526 570 q 510 623 526 601 q 471 661 495 646 q 417 683 447 676 q 358 690 387 690 l 358 690 q 269 681 309 690 q 200 654 229 671 q 155 614 171 637 q 139 562 139 590 l 139 562 q 156 501 139 527 q 199 458 173 476 q 259 426 226 439 q 324 404 292 413 l 324 404 q 363 418 341 410 q 407 437 384 426 q 451 460 429 447 q 489 490 472 473 q 516 526 505 506 q 526 570 526 546 z m 322 -4 l 322 -4 q 381 -1 350 -4 q 441 11 411 3 q 498 33 471 20 q 546 66 525 47 q 579 112 567 86 q 591 172 591 138 l 591 172 q 578 229 591 204 q 544 273 565 254 q 495 307 523 292 q 438 332 468 321 q 379 350 409 342 q 326 365 350 358 l 326 365 q 264 340 295 353 q 205 312 233 327 q 150 281 176 297 q 106 244 125 264 q 77 202 87 225 q 66 154 66 180 l 66 154 q 84 85 66 115 q 137 36 103 56 q 218 6 170 16 q 322 -4 265 -4 z"},"9":{"ha":722,"x_min":29,"x_max":688,"o":"m 688 411 l 688 411 q 668 282 688 346 q 611 163 647 218 q 522 63 574 107 q 408 -8 470 19 l 408 -8 q 341 -32 373 -23 q 286 -44 310 -40 q 247 -49 262 -48 q 231 -49 232 -49 l 231 -49 q 218 -44 223 -50 q 212 -31 212 -39 l 212 -31 q 218 -18 212 -23 q 231 -13 223 -13 l 231 -13 q 245 -12 231 -13 q 281 -8 258 -11 q 332 4 303 -4 q 395 26 362 12 l 395 26 q 496 89 449 50 q 578 179 543 129 q 632 289 612 230 q 651 412 651 349 l 651 412 q 637 500 651 461 q 599 568 623 539 q 544 618 575 598 q 480 652 513 639 q 415 671 447 666 q 355 677 382 677 l 355 677 q 281 670 317 677 q 213 648 245 662 q 154 615 181 634 q 107 570 126 595 q 77 516 88 545 q 66 455 66 487 l 66 455 q 75 392 66 419 q 101 343 84 364 q 139 307 117 322 q 185 282 161 292 q 236 268 210 272 q 288 264 263 264 l 288 264 q 383 278 338 264 q 463 316 428 292 q 524 375 499 341 q 559 448 548 408 l 559 448 q 565 458 560 454 q 576 461 570 461 l 576 461 q 590 456 584 461 q 595 443 595 450 l 595 443 q 595 442 595 442 q 594 438 595 441 l 594 438 q 557 354 584 393 q 488 287 529 315 q 396 243 447 259 q 290 227 346 227 l 290 227 q 193 241 240 227 q 110 284 146 255 q 51 354 73 312 q 29 454 29 397 l 29 454 q 56 558 29 510 q 127 640 83 606 q 231 694 172 675 q 355 714 291 714 l 355 714 q 439 704 397 714 q 517 677 480 695 q 585 632 554 658 q 639 572 617 605 q 675 498 662 538 q 688 411 688 458 z"}," ":{"ha":220,"x_min":0,"x_max":0,"o":""},"D":{"ha":1022,"x_min":29,"x_max":988,"o":"m 457 718 l 457 718 q 580 707 517 718 q 701 674 642 696 q 813 617 760 651 q 904 538 865 583 q 966 436 943 493 q 988 309 988 378 l 988 309 q 964 181 988 240 q 896 79 939 122 q 791 11 852 36 q 656 -13 729 -13 l 656 -13 q 584 -8 622 -13 q 510 8 547 -3 q 437 34 473 19 q 369 72 401 50 l 369 72 q 280 13 330 34 q 173 -8 229 -8 l 173 -8 q 116 -1 143 -8 q 71 18 90 5 q 40 49 51 31 q 29 89 29 67 l 29 89 q 39 125 29 108 q 66 154 48 141 q 107 174 83 167 q 160 181 131 181 l 160 181 q 361 119 245 181 l 361 119 q 396 179 383 146 l 396 179 q 420 257 412 217 q 435 336 429 296 q 449 413 442 375 q 469 484 456 451 q 501 545 481 517 q 554 592 521 572 l 554 592 q 563 594 559 594 l 563 594 q 576 589 570 594 q 582 576 582 584 l 582 576 q 573 560 582 565 l 573 560 q 531 522 547 545 q 503 471 514 500 q 486 410 493 443 q 474 342 480 377 l 474 342 q 463 281 469 313 q 449 217 458 249 q 427 156 440 186 q 394 100 413 125 l 394 100 q 395 99 395 100 q 396 99 395 99 l 396 99 q 525 42 458 62 q 656 23 592 23 l 656 23 q 780 46 725 23 q 873 108 835 69 q 931 199 911 147 q 951 308 951 250 l 951 308 q 932 417 951 367 q 878 509 912 468 q 798 583 844 551 q 697 637 751 615 q 584 670 643 659 q 465 682 524 682 l 465 682 q 319 668 385 682 q 205 629 252 655 q 131 565 157 603 q 104 480 104 528 l 104 480 q 113 432 104 453 q 133 395 121 411 q 160 369 146 380 q 188 352 175 358 q 209 342 200 345 q 220 339 218 339 l 220 339 q 230 332 226 337 q 233 321 233 327 l 233 321 q 228 308 233 313 q 215 304 222 304 l 215 304 q 190 308 205 304 q 159 323 176 313 q 127 346 143 332 q 97 380 110 361 q 76 425 84 400 q 68 480 68 450 l 68 480 q 96 579 68 535 q 175 654 124 624 q 298 702 227 685 q 457 718 370 718 z m 335 91 l 335 91 q 241 131 284 118 q 161 145 197 145 l 161 145 q 123 140 141 145 q 93 128 106 136 q 73 110 81 120 q 66 88 66 100 l 66 88 q 73 67 66 78 q 93 48 79 56 q 126 34 106 40 q 173 29 146 29 l 173 29 q 260 45 219 29 q 335 91 302 62 z"},"E":{"ha":829,"x_min":29,"x_max":800,"o":"m 799 208 l 799 208 q 792 191 798 206 q 771 155 786 176 q 731 107 756 133 q 670 57 707 82 q 582 12 633 32 q 464 -19 531 -8 l 464 -19 q 370 -26 419 -26 l 370 -26 q 288 -21 329 -26 q 209 -3 247 -15 q 138 27 171 9 q 81 71 105 46 q 43 130 57 97 q 29 203 29 163 l 29 203 q 69 327 29 275 q 187 407 109 378 l 187 407 q 146 464 159 433 q 132 529 132 496 l 132 529 q 151 607 132 571 q 205 668 170 643 q 286 709 239 694 q 389 723 333 723 l 389 723 q 488 712 446 723 q 560 686 530 702 q 610 650 590 669 q 640 615 629 631 q 656 587 651 598 q 661 574 660 575 l 661 574 q 661 568 661 572 l 661 568 q 656 556 661 562 q 643 550 651 550 l 643 550 q 632 554 637 550 q 625 564 627 558 l 625 564 q 622 574 625 565 q 608 598 618 584 q 581 627 598 611 q 538 656 564 642 q 475 678 512 669 q 389 687 438 687 l 389 687 q 291 672 333 687 q 222 635 249 658 q 182 585 195 613 q 168 530 168 557 l 168 530 q 184 470 168 499 q 229 420 200 441 l 229 420 q 281 431 255 427 q 329 437 306 435 q 369 440 351 439 q 399 441 388 441 l 399 441 q 439 438 421 441 q 470 428 457 435 q 490 413 483 422 q 498 391 498 403 l 498 391 q 490 369 498 379 q 470 353 483 359 q 439 342 457 346 q 399 338 421 338 l 399 338 q 352 341 376 338 q 305 350 328 344 q 262 363 283 355 q 224 381 241 371 l 224 381 q 106 314 146 358 q 66 205 66 270 l 66 205 q 78 141 66 169 q 113 92 91 113 q 164 55 135 70 q 228 30 194 40 q 298 15 261 20 q 371 11 334 11 l 371 11 q 416 12 394 11 q 458 18 438 14 l 458 18 q 567 46 520 27 q 647 87 613 65 q 704 133 681 109 q 740 175 726 156 q 759 207 753 194 q 764 219 764 219 l 764 219 q 771 228 766 225 q 781 231 775 231 l 781 231 q 794 226 789 231 q 800 213 800 221 l 800 213 q 799 208 800 211 z m 460 391 l 460 391 q 454 397 460 395 q 438 402 448 400 q 415 405 428 404 q 389 405 402 405 l 389 405 q 334 404 360 405 q 275 396 309 402 l 275 396 q 334 381 301 386 q 400 375 367 375 l 400 375 q 446 380 431 375 q 460 391 460 385 z"},"F":{"ha":1082,"x_min":0,"x_max":1229,"o":"m 1119 723 l 1119 723 q 1155 719 1135 723 q 1190 707 1174 715 q 1218 684 1207 698 q 1229 648 1229 669 l 1229 648 q 1213 600 1229 622 q 1170 563 1198 579 q 1103 539 1142 548 q 1018 531 1064 531 l 1018 531 q 903 538 965 531 l 903 538 q 886 459 892 503 q 880 363 881 416 l 880 363 q 918 364 899 363 q 958 364 938 364 l 958 364 q 1013 363 985 364 q 1069 361 1041 362 l 1069 361 q 1082 355 1078 361 q 1087 342 1087 350 l 1087 342 q 1082 330 1087 334 q 1069 325 1076 325 l 1069 325 q 1013 326 1041 325 q 959 327 986 327 l 959 327 q 919 326 938 327 q 880 326 899 326 l 880 326 q 881 313 880 319 q 881 299 881 306 l 881 299 q 858 164 881 223 q 791 64 835 104 q 682 2 747 23 q 534 -19 618 -19 l 534 -19 q 425 -8 473 -19 q 342 21 377 3 q 280 62 306 40 q 237 108 254 85 q 210 153 220 131 q 195 190 200 175 l 195 190 q 194 193 194 192 q 194 196 194 194 l 194 196 q 199 209 194 203 q 213 214 205 214 l 213 214 q 223 211 219 214 q 230 202 228 208 l 230 202 q 243 169 234 188 q 267 130 252 150 q 305 89 283 109 q 361 54 328 69 q 436 28 393 38 q 534 19 479 19 l 534 19 q 766 90 688 19 q 844 300 844 161 l 844 300 q 844 312 844 306 q 844 324 844 318 l 844 324 q 753 320 794 322 q 680 314 711 317 q 630 310 649 312 q 607 308 611 308 l 607 308 q 592 313 599 308 q 586 327 586 317 l 586 327 q 591 339 586 333 q 603 345 596 344 l 603 345 q 621 347 603 345 q 672 351 640 349 q 748 357 704 354 q 844 361 792 359 l 844 361 q 866 543 845 469 l 866 543 q 758 562 813 551 q 648 585 703 573 q 540 609 593 597 q 438 631 487 621 q 347 646 390 641 q 269 652 304 652 l 269 652 q 177 642 219 652 q 103 613 134 632 q 54 567 72 594 q 37 504 37 539 l 37 504 q 45 463 37 481 q 64 431 54 444 q 84 411 75 418 q 95 404 94 404 l 95 404 q 101 397 99 401 q 103 388 103 393 l 103 388 q 97 375 103 380 q 85 370 92 370 l 85 370 q 75 373 80 370 l 75 373 q 50 394 63 381 q 26 423 37 406 q 7 459 15 439 q 0 504 0 480 l 0 504 q 21 582 0 548 q 78 640 42 616 q 163 677 114 664 q 269 689 212 689 l 269 689 q 346 683 303 689 q 438 667 389 677 q 542 645 488 657 q 653 620 597 633 q 767 597 710 608 q 879 578 824 585 l 879 578 q 918 643 893 616 q 977 688 944 671 q 1046 714 1009 706 q 1119 723 1083 723 z m 1191 649 l 1191 649 q 1184 668 1191 661 q 1165 679 1176 675 q 1141 685 1154 683 q 1119 686 1129 686 l 1119 686 q 1067 681 1095 686 q 1010 664 1038 676 q 957 629 982 651 q 917 573 933 607 l 917 573 q 1017 567 971 567 l 1017 567 q 1087 573 1055 567 q 1142 590 1119 579 q 1178 616 1165 601 q 1191 649 1191 631 z"},"G":{"ha":867,"x_min":39,"x_max":847,"o":"m 847 469 l 847 469 q 842 456 847 462 q 829 450 837 450 l 829 450 q 816 455 822 450 q 810 468 811 460 l 810 468 q 808 487 810 470 q 798 528 806 503 q 773 579 790 552 q 728 630 757 607 q 654 669 699 654 q 546 685 610 685 l 546 685 q 433 668 490 685 q 324 621 376 651 q 227 548 272 590 q 148 455 181 506 q 95 347 114 404 q 76 228 76 289 l 76 228 q 91 134 76 173 q 133 69 106 94 q 196 33 160 44 q 274 21 232 21 l 274 21 q 410 47 347 21 q 528 115 474 72 q 626 214 582 157 q 706 334 670 271 l 706 334 q 719 425 709 394 q 750 457 729 457 l 750 457 q 768 447 761 457 q 776 423 776 438 l 776 423 q 768 382 776 407 q 742 325 759 357 l 742 325 q 741 275 741 302 l 741 275 q 744 191 741 237 q 754 93 747 145 l 754 93 q 786 108 774 104 q 803 115 797 113 q 810 116 808 116 q 812 116 811 116 l 812 116 q 825 111 819 116 q 831 97 831 105 l 831 97 q 827 87 831 91 q 818 80 824 82 l 818 80 q 801 73 817 80 q 759 54 785 67 l 759 54 q 763 1 761 28 q 764 -53 764 -26 l 764 -53 q 755 -176 764 -118 q 724 -279 746 -235 q 668 -350 703 -324 q 582 -376 633 -376 l 582 -376 q 535 -367 556 -376 q 498 -343 513 -358 q 473 -305 482 -327 q 464 -258 464 -284 l 464 -258 q 477 -186 464 -221 q 510 -117 489 -150 q 558 -54 531 -83 q 613 0 584 -24 q 669 44 641 25 q 719 75 696 63 l 719 75 q 709 171 713 124 q 704 263 705 218 l 704 263 q 611 143 662 195 q 504 56 560 91 q 389 3 448 21 q 272 -15 331 -15 l 272 -15 q 177 1 220 -15 q 103 48 134 17 q 56 124 72 79 q 39 229 39 169 l 39 229 q 59 352 39 291 q 113 468 78 413 q 195 569 147 522 q 299 649 243 615 q 418 702 355 683 q 546 722 481 722 l 546 722 q 656 707 609 722 q 735 671 702 693 q 787 622 767 648 q 819 573 808 596 l 819 573 q 835 534 829 553 q 843 501 840 516 q 846 479 846 487 q 847 469 847 470 z m 724 35 l 724 35 q 673 2 699 21 q 622 -39 647 -17 q 576 -87 598 -62 q 537 -141 554 -113 q 511 -198 521 -169 q 501 -258 501 -228 l 501 -258 q 507 -291 501 -276 q 524 -317 513 -306 q 549 -333 535 -327 q 582 -339 564 -339 l 582 -339 q 689 -266 650 -339 q 728 -53 728 -193 l 728 -53 q 727 -10 728 -32 q 724 35 726 12 z"},"H":{"ha":1184,"x_min":0,"x_max":1233,"o":"m 742 708 l 742 708 q 732 675 742 691 q 708 644 723 658 q 676 618 694 630 q 639 600 657 607 l 639 600 q 631 554 634 579 q 627 498 628 529 l 627 498 q 625 422 626 460 q 619 348 623 385 l 619 348 q 705 351 658 349 q 803 354 752 353 q 908 356 854 355 q 1016 357 962 357 l 1016 357 q 1033 496 1020 436 q 1068 598 1046 557 q 1118 661 1089 640 q 1182 683 1146 683 l 1182 683 q 1196 682 1188 683 q 1213 678 1205 681 q 1227 670 1221 675 q 1233 656 1233 665 l 1233 656 q 1232 652 1233 654 q 1230 647 1232 649 l 1230 647 q 1216 638 1225 638 l 1216 638 q 1210 639 1212 638 q 1204 642 1208 641 q 1196 644 1201 643 q 1183 646 1191 646 l 1183 646 q 1164 643 1175 646 q 1139 630 1152 640 q 1112 602 1126 621 q 1086 551 1098 583 q 1065 472 1074 519 q 1053 357 1056 424 l 1053 357 q 1117 356 1085 357 q 1178 355 1148 356 l 1178 355 q 1191 349 1187 355 q 1196 336 1196 344 l 1196 336 q 1190 323 1196 328 q 1178 318 1185 318 l 1178 318 q 1157 319 1168 318 q 1133 319 1147 319 q 1099 320 1118 320 q 1052 321 1079 321 l 1052 321 q 1052 305 1052 313 q 1052 289 1052 297 l 1052 289 q 1056 193 1052 235 q 1066 118 1060 150 q 1080 62 1072 85 q 1093 24 1087 39 q 1104 2 1100 9 q 1108 -5 1108 -5 l 1108 -5 q 1111 -16 1111 -10 l 1111 -16 q 1106 -29 1111 -23 q 1093 -35 1101 -35 l 1093 -35 q 1078 -27 1083 -35 l 1078 -27 q 1067 -8 1077 -25 q 1045 48 1057 10 q 1024 145 1034 85 q 1015 289 1015 204 l 1015 289 l 1015 321 q 906 320 960 321 q 800 317 851 319 q 701 314 748 316 q 614 311 654 313 l 614 311 q 586 183 605 243 q 531 78 566 123 q 439 7 495 33 q 302 -20 383 -20 l 302 -20 q 219 -10 259 -20 q 144 15 178 -1 q 81 54 109 31 q 36 104 53 77 l 36 104 q 33 114 33 109 l 33 114 q 38 127 33 122 q 51 133 43 133 l 51 133 q 60 131 56 133 q 67 125 64 128 l 67 125 q 106 81 82 101 q 161 47 130 62 q 228 25 192 33 q 302 18 264 18 l 302 18 q 423 40 374 18 q 503 103 472 63 q 551 195 534 142 q 576 309 567 248 l 576 309 q 501 305 529 307 q 473 304 474 304 l 473 304 q 460 308 466 304 q 454 321 454 313 l 454 321 q 458 334 454 329 q 471 341 463 340 l 471 341 q 501 342 472 341 q 580 346 530 344 l 580 346 q 586 422 584 384 q 590 500 588 460 l 590 500 q 594 548 591 524 q 601 590 597 571 l 601 590 q 575 586 589 587 q 548 584 562 584 l 548 584 q 463 591 505 584 q 380 606 422 598 q 296 621 338 614 q 210 627 254 627 l 210 627 q 142 620 174 627 q 87 597 111 612 q 51 557 64 581 q 37 501 37 534 l 37 501 q 44 465 37 481 q 61 439 52 450 q 79 422 70 428 q 90 415 87 416 l 90 415 q 99 398 99 408 l 99 398 q 94 385 99 391 q 82 380 89 380 l 82 380 q 75 382 78 380 q 69 384 72 383 l 69 384 q 46 402 58 391 q 23 427 34 413 q 7 461 13 442 q 0 501 0 479 l 0 501 q 19 575 0 544 q 68 626 38 606 q 135 655 98 646 q 210 665 173 665 l 210 665 q 295 657 253 665 q 378 642 336 650 q 463 627 420 634 q 549 620 505 620 l 549 620 q 581 621 566 620 q 607 626 595 622 l 607 626 q 628 679 616 657 q 652 716 639 701 q 678 737 665 730 q 704 744 691 744 l 704 744 q 731 734 720 744 q 742 708 742 724 z m 701 709 l 701 709 q 691 705 697 709 q 676 692 684 701 q 661 670 668 684 q 647 639 653 657 l 647 639 q 675 658 663 646 q 695 681 688 670 q 704 701 702 693 q 701 709 706 709 z"},"I":{"ha":635,"x_min":2,"x_max":649,"o":"m 620 757 l 620 757 q 641 747 632 757 q 649 721 649 736 l 649 721 q 633 676 649 701 q 586 623 617 650 l 586 623 q 577 561 581 596 q 573 481 573 526 l 573 481 q 568 348 573 413 q 552 226 564 283 q 517 121 540 169 q 459 39 495 73 q 372 -15 423 4 q 250 -34 321 -34 l 250 -34 q 146 -21 192 -34 q 68 17 100 -7 q 19 74 36 42 q 2 145 2 106 l 2 145 q 19 215 2 183 q 62 272 35 248 q 126 310 89 296 q 203 323 162 323 l 203 323 q 216 323 209 323 q 228 321 223 323 q 237 315 233 319 q 241 304 241 311 l 241 304 q 235 291 241 296 q 222 286 229 286 l 222 286 q 213 286 217 286 q 203 286 208 286 l 203 286 q 140 275 170 286 q 88 246 110 265 q 52 201 65 227 q 39 145 39 175 l 39 145 q 49 97 39 118 q 75 60 59 76 q 114 33 92 44 q 159 15 135 21 q 208 5 183 8 q 255 1 232 1 l 255 1 q 362 19 317 1 q 438 68 407 37 q 488 144 469 100 q 518 242 507 188 q 532 356 528 295 q 536 482 536 417 l 536 482 q 539 543 537 513 q 544 598 541 573 l 544 598 q 501 578 524 587 q 454 557 478 568 q 408 535 430 547 q 368 509 385 523 q 340 476 351 494 q 330 437 330 458 l 330 437 q 336 402 330 417 q 354 376 343 387 q 376 360 364 366 q 399 349 388 353 q 417 344 409 346 q 425 342 424 342 l 425 342 q 437 336 434 340 q 439 326 439 332 l 439 326 q 435 312 439 317 q 422 307 430 307 l 422 307 q 418 307 421 307 q 414 308 415 308 l 414 308 q 377 320 398 312 q 337 344 356 329 q 305 383 318 359 q 292 440 292 406 l 292 440 q 307 493 292 470 q 345 534 322 516 q 398 566 369 552 q 456 593 427 580 q 510 617 485 605 q 552 642 536 628 l 552 642 q 583 729 565 701 q 620 757 602 757 z"},"J":{"ha":565,"x_min":49,"x_max":580,"o":"m 496 646 l 496 646 q 472 552 482 605 q 462 436 462 499 l 462 436 q 465 345 462 391 q 470 246 468 299 l 470 246 q 491 252 482 252 l 491 252 q 503 248 498 252 q 508 236 508 243 l 508 236 q 499 220 508 225 q 471 207 489 215 l 471 207 l 471 165 q 458 -40 471 53 q 416 -200 445 -133 q 340 -305 387 -267 q 225 -342 293 -342 l 225 -342 q 168 -331 196 -342 q 119 -298 141 -320 q 84 -242 97 -275 q 70 -164 70 -208 l 70 -164 q 89 -70 70 -114 q 137 14 107 -25 q 206 87 167 54 q 284 148 244 121 q 364 196 325 175 q 434 229 403 216 l 434 229 q 429 330 433 280 q 426 434 426 381 l 426 434 q 432 530 426 484 q 449 616 438 576 l 449 616 q 407 596 430 605 q 359 579 384 587 q 308 563 334 570 q 257 547 282 555 l 257 547 q 187 523 218 536 q 133 492 155 509 q 98 452 110 474 q 85 400 85 429 l 85 400 q 99 342 85 366 q 133 303 112 318 q 181 281 154 288 q 234 275 208 275 l 234 275 q 247 270 242 275 q 252 256 252 264 l 252 256 q 246 243 252 249 q 234 238 241 238 l 234 238 q 168 248 201 238 q 108 277 135 257 q 65 327 82 297 q 49 398 49 357 l 49 398 q 63 462 49 434 q 104 512 78 490 q 166 551 129 534 q 247 580 203 567 l 247 580 q 311 600 279 589 q 371 621 343 610 q 424 644 400 632 q 465 669 448 656 l 465 669 q 507 753 484 724 q 550 783 529 783 l 550 783 q 559 781 554 783 q 569 776 564 779 q 577 766 574 772 q 580 750 580 759 l 580 750 q 557 701 580 729 q 496 646 535 674 z m 434 191 l 434 191 q 371 160 406 179 q 299 115 335 141 q 228 59 263 90 q 167 -7 194 28 q 123 -82 140 -42 q 107 -163 107 -121 l 107 -163 q 117 -226 107 -199 q 145 -271 127 -252 q 184 -298 162 -289 q 230 -307 207 -307 l 230 -307 q 301 -288 271 -307 q 355 -236 332 -269 q 393 -156 377 -202 q 417 -54 408 -110 q 430 63 426 1 q 434 191 434 125 z"},"K":{"ha":1154,"x_min":0,"x_max":1134,"o":"m 511 622 l 511 622 q 497 598 504 612 q 485 567 491 585 q 477 527 480 550 q 472 476 473 504 l 472 476 q 470 423 471 450 q 468 371 470 397 l 468 371 q 476 371 471 371 l 476 371 q 532 364 501 371 q 597 341 563 356 l 597 341 q 676 372 642 353 q 737 414 710 391 q 784 465 764 438 q 823 520 805 492 q 856 573 840 547 q 889 623 872 600 l 889 623 q 929 667 906 646 q 976 703 952 688 q 1024 728 1000 719 q 1070 737 1049 737 l 1070 737 q 1084 732 1078 737 q 1090 719 1090 728 l 1090 719 q 1085 706 1090 711 q 1072 700 1080 701 l 1072 700 q 1037 692 1057 700 q 997 672 1018 685 q 955 641 976 659 q 918 600 935 623 l 918 600 q 883 547 899 574 q 849 494 866 521 q 813 443 833 468 q 770 395 794 418 q 714 353 746 373 q 641 316 683 333 l 641 316 q 708 261 676 294 q 778 188 740 229 l 778 188 q 837 125 809 154 q 890 73 864 95 q 941 38 917 50 q 991 25 966 25 l 991 25 q 1051 41 1022 25 q 1100 89 1080 58 l 1100 89 q 1116 97 1105 97 l 1116 97 q 1129 91 1124 97 q 1134 79 1134 85 l 1134 79 q 1131 69 1134 73 l 1131 69 q 1069 9 1106 29 q 992 -12 1032 -12 l 992 -12 q 932 1 960 -12 q 874 38 903 15 q 815 94 845 62 q 750 163 785 126 l 750 163 q 708 208 728 187 q 670 246 688 229 q 632 278 651 264 q 592 302 613 292 l 592 302 q 542 293 566 295 q 497 291 517 291 l 497 291 q 479 291 487 291 q 463 293 470 292 l 463 293 q 452 210 459 250 q 432 135 444 170 q 400 72 419 101 q 353 22 380 43 q 288 -10 325 2 q 202 -21 250 -21 l 202 -21 q 147 -16 174 -21 q 94 -3 120 -12 q 47 19 69 6 q 6 49 24 32 l 6 49 q 0 63 0 54 l 0 63 q 5 75 0 70 q 18 81 11 81 l 18 81 q 31 76 26 81 l 31 76 q 107 31 63 47 q 202 16 152 16 l 202 16 q 305 37 264 16 q 372 96 346 58 q 410 188 397 134 q 428 307 422 241 l 428 307 q 419 318 422 312 q 417 331 417 324 l 417 331 q 432 358 417 348 l 432 358 q 434 417 433 387 q 436 479 435 447 l 436 479 q 446 563 437 529 q 468 621 456 598 l 468 621 q 417 623 443 620 q 362 629 390 625 q 306 635 334 632 q 252 639 278 639 l 252 639 q 188 629 218 639 q 136 601 159 619 q 102 559 114 583 q 89 504 89 534 l 89 504 q 100 461 89 478 q 125 435 111 445 q 150 421 138 425 q 163 417 161 417 l 163 417 q 173 410 169 415 q 177 398 177 405 l 177 398 q 171 385 177 390 q 158 380 165 380 l 158 380 q 154 381 155 380 l 154 381 q 123 393 140 384 q 89 416 105 401 q 63 453 74 431 q 52 504 52 475 l 52 504 q 68 573 52 542 q 111 628 83 605 q 174 663 138 650 q 251 675 210 675 l 251 675 q 316 672 283 675 q 380 665 349 668 q 440 658 411 661 q 492 658 468 656 l 492 658 q 515 681 501 669 q 543 700 528 692 q 573 714 558 709 q 603 720 588 720 l 603 720 q 630 710 619 720 q 641 686 641 701 l 641 686 q 631 664 641 674 q 602 644 620 653 q 561 629 584 635 q 511 622 537 624 z m 542 327 l 542 327 q 530 330 537 329 q 514 333 522 332 q 495 336 505 335 q 476 337 485 337 l 476 337 q 471 337 474 337 q 467 336 469 336 l 467 336 q 466 331 466 333 q 466 326 466 328 l 466 326 q 492 324 473 324 l 492 324 q 501 324 495 324 q 515 324 508 324 q 530 325 523 325 q 542 327 537 326 z m 604 690 l 604 690 q 592 688 600 690 q 574 681 583 685 q 556 671 565 676 q 540 660 547 666 l 540 660 q 566 666 552 661 q 589 676 579 670 q 604 686 600 681 q 604 690 609 690 z"},"L":{"ha":901,"x_min":-29,"x_max":882,"o":"m 879 80 l 879 80 q 873 71 878 79 q 858 53 868 64 q 833 31 848 43 q 798 9 818 19 q 752 -8 777 -1 q 696 -15 727 -15 l 696 -15 q 606 -3 648 -15 q 525 28 564 9 q 449 69 486 46 q 372 113 411 91 l 372 113 q 317 48 348 73 q 253 8 286 22 q 186 -11 219 -6 q 125 -16 153 -16 l 125 -16 q 71 -10 99 -16 q 21 8 43 -5 q -15 42 -1 21 q -29 94 -29 63 l -29 94 q -16 147 -29 124 q 21 188 -2 171 q 77 213 45 204 q 146 222 109 222 l 146 222 q 202 217 174 222 q 256 204 229 212 q 307 185 282 196 q 354 164 332 175 l 354 164 q 359 182 357 173 q 363 201 361 190 q 365 224 365 211 q 366 254 366 237 l 366 254 q 365 285 366 271 q 364 317 365 300 q 363 356 363 334 q 362 408 362 378 l 362 408 q 375 535 362 478 q 416 634 389 593 q 483 698 443 675 q 576 720 523 720 l 576 720 q 637 710 608 720 q 689 681 667 700 q 724 635 711 662 q 737 577 737 609 l 737 577 q 732 540 737 559 q 719 505 727 521 q 699 479 710 489 q 676 469 688 469 l 676 469 q 664 473 669 469 q 658 485 658 477 l 658 485 q 661 495 658 491 q 667 502 664 499 l 667 502 q 691 534 682 515 q 700 577 700 552 l 700 577 q 690 621 700 601 q 663 655 680 641 q 624 676 646 668 q 577 684 602 684 l 577 684 q 498 664 531 684 q 442 607 464 644 q 409 519 420 571 q 399 405 399 468 l 399 405 q 400 352 399 375 q 401 310 400 329 q 403 274 402 291 q 403 239 403 257 l 403 239 q 402 217 403 229 q 399 193 401 205 q 394 168 397 180 q 387 146 391 156 l 387 146 q 460 105 424 127 q 534 65 497 83 q 611 34 571 46 q 695 22 651 22 l 695 22 q 763 34 734 22 q 810 60 792 46 q 838 87 829 75 q 848 99 848 99 l 848 99 q 863 108 853 108 l 863 108 q 877 102 872 108 q 882 89 882 96 l 882 89 q 879 80 882 84 z m 340 131 l 340 131 q 296 151 319 141 q 248 169 272 161 q 198 181 224 177 q 147 186 172 186 l 147 186 q 93 180 118 186 q 48 162 67 174 q 18 134 29 150 q 7 96 7 117 l 7 96 q 17 62 7 77 q 43 38 27 48 q 81 24 60 29 q 126 20 103 20 l 126 20 q 185 24 154 20 q 243 41 215 29 q 296 75 271 54 q 340 131 321 97 z"},"M":{"ha":1329,"x_min":15,"x_max":1319,"o":"m 1163 629 l 1163 629 q 1116 555 1142 598 q 1061 459 1090 512 l 1061 459 q 1012 365 1036 415 q 966 265 988 314 q 925 171 944 216 q 893 92 907 126 q 872 36 879 57 q 864 15 864 16 l 864 15 q 846 3 859 3 l 846 3 q 835 7 840 3 q 829 18 830 11 l 829 18 q 824 38 829 18 q 812 93 819 59 q 794 171 804 126 q 773 263 784 215 q 750 360 762 311 q 729 454 739 410 l 729 454 q 664 291 697 362 q 596 167 631 220 q 525 79 562 115 q 448 22 488 43 q 363 -9 407 0 q 270 -19 319 -19 l 270 -19 q 215 -13 244 -19 q 158 4 187 -7 q 104 34 130 16 q 58 75 78 51 q 26 130 38 100 q 15 198 15 161 l 15 198 q 31 271 15 238 q 76 327 48 304 q 142 364 104 351 q 221 377 179 377 l 221 377 q 275 372 251 377 q 318 359 299 367 q 350 342 336 352 q 372 325 363 333 q 384 312 380 317 q 389 306 388 306 l 389 306 q 392 296 392 301 l 392 296 q 386 283 392 289 q 373 277 381 277 l 373 277 q 357 286 363 277 l 357 286 q 350 295 357 286 q 326 313 342 303 q 283 332 309 324 q 219 340 257 340 l 219 340 q 155 330 185 340 q 101 300 124 319 q 65 255 79 281 q 52 198 52 229 l 52 198 q 62 142 52 167 q 89 96 72 116 q 129 62 106 76 q 176 37 151 47 q 225 23 200 28 q 271 19 250 19 l 271 19 q 344 24 309 19 q 414 45 379 30 q 481 88 448 61 q 547 160 515 116 q 612 266 580 204 q 676 412 644 328 l 676 412 q 695 467 686 438 q 714 526 705 496 l 714 526 q 702 599 706 569 q 699 649 699 629 l 699 649 q 702 684 699 671 q 711 703 706 696 q 723 711 716 709 q 735 713 729 713 l 735 713 q 746 711 740 713 q 757 702 752 709 q 766 683 762 696 q 769 649 769 670 l 769 649 q 765 595 769 625 q 751 527 760 564 l 751 527 q 766 460 758 497 q 783 385 774 424 q 801 304 792 345 q 819 224 811 263 q 836 149 828 185 q 851 85 844 114 l 851 85 q 883 165 864 118 q 926 265 902 212 q 975 373 949 318 q 1029 477 1001 428 l 1029 477 q 1100 596 1067 546 q 1155 678 1132 646 q 1192 725 1179 710 q 1207 742 1206 741 l 1207 742 q 1220 748 1212 748 l 1220 748 q 1233 742 1228 748 q 1238 729 1238 736 l 1238 729 q 1237 722 1238 726 l 1237 722 q 1231 708 1237 722 q 1217 670 1226 694 q 1198 613 1208 646 q 1178 543 1188 581 q 1161 465 1168 506 q 1150 384 1153 424 l 1150 384 q 1147 345 1148 365 q 1146 304 1146 325 l 1146 304 q 1149 239 1146 272 q 1159 176 1152 207 q 1178 119 1166 146 q 1207 73 1189 93 q 1247 41 1224 53 q 1302 27 1271 28 l 1302 27 q 1315 21 1310 27 q 1319 8 1319 15 l 1319 8 q 1314 -4 1319 1 q 1301 -10 1309 -10 l 1301 -10 q 1286 -8 1293 -10 l 1286 -8 q 1224 12 1250 -3 q 1177 50 1197 27 q 1145 102 1158 73 q 1124 164 1132 131 q 1113 233 1116 197 q 1110 306 1110 269 l 1110 306 q 1114 393 1110 349 q 1126 477 1119 436 q 1143 557 1133 519 q 1163 629 1153 596 z"},"N":{"ha":1128,"x_min":15,"x_max":1299,"o":"m 1299 734 l 1299 734 q 1292 723 1298 727 q 1280 718 1287 718 l 1280 718 q 1277 719 1279 718 q 1266 719 1274 719 l 1266 719 q 1242 717 1256 719 q 1210 709 1228 715 q 1174 691 1193 703 q 1137 659 1155 679 q 1103 611 1119 640 q 1076 541 1087 582 l 1076 541 q 1062 482 1070 520 q 1046 396 1055 443 q 1029 293 1038 348 q 1013 187 1021 239 q 999 88 1005 135 q 989 7 993 41 l 989 7 q 984 -5 988 0 q 972 -10 979 -10 l 972 -10 q 960 -6 965 -10 q 953 4 955 -3 l 953 4 q 933 69 947 27 q 902 162 919 110 q 863 273 884 214 q 821 389 842 332 q 781 499 800 446 q 747 591 762 551 l 747 591 q 740 531 745 564 q 726 459 734 497 q 705 378 717 420 q 674 289 692 335 l 674 289 q 610 169 647 219 q 533 86 573 119 q 450 33 492 53 q 372 4 409 14 q 306 -8 335 -5 q 261 -11 277 -11 l 261 -11 q 162 3 208 -11 q 84 44 117 18 q 33 106 51 70 q 15 187 15 143 l 15 187 q 32 260 15 226 q 80 320 50 295 q 149 360 110 346 q 230 375 188 375 l 230 375 q 292 368 265 375 q 341 351 320 361 q 378 328 362 340 q 403 305 393 316 q 418 286 413 294 q 424 277 423 278 l 424 277 q 426 268 426 273 l 426 268 q 421 255 426 261 q 408 250 416 250 l 408 250 q 392 259 397 250 l 392 259 q 382 273 391 261 q 354 300 373 286 q 306 327 335 315 q 233 339 276 339 l 233 339 q 166 327 199 339 q 107 295 133 315 q 67 246 82 274 q 51 186 51 218 l 51 186 q 68 120 51 150 q 113 70 84 91 q 179 37 142 49 q 260 26 217 26 l 260 26 q 304 28 277 26 q 365 40 332 31 q 437 66 399 48 q 511 115 475 84 q 581 191 548 146 q 640 303 615 237 l 640 303 q 681 431 667 370 q 704 541 696 492 q 713 624 711 589 q 714 673 714 658 l 714 673 l 714 683 q 719 696 714 690 q 733 702 725 702 l 733 702 q 750 689 745 702 l 750 689 q 759 667 751 686 q 777 616 766 647 q 803 544 789 585 q 835 458 818 504 q 869 364 852 413 q 904 268 887 315 q 936 176 920 220 q 963 96 951 132 l 963 96 q 975 179 968 135 q 988 267 981 223 q 1002 355 995 312 q 1016 436 1009 398 q 1029 503 1023 473 q 1040 551 1035 533 l 1040 551 q 1071 631 1051 594 q 1119 696 1091 668 q 1185 740 1148 724 q 1267 756 1222 756 l 1267 756 q 1291 752 1284 756 q 1299 737 1299 748 l 1299 737 l 1299 734 z"},"O":{"ha":773,"x_min":29,"x_max":822,"o":"m 732 425 l 732 408 q 751 420 741 413 q 769 435 760 427 q 785 450 778 443 q 796 462 792 457 l 796 462 q 804 466 799 466 l 804 466 q 817 460 812 466 q 822 447 822 454 l 822 447 q 820 438 822 442 l 820 438 q 805 421 814 431 q 784 402 796 412 q 758 382 772 392 q 729 363 744 372 l 729 363 q 689 196 721 267 q 607 76 657 124 q 494 5 558 28 q 358 -19 430 -19 l 358 -19 q 280 -11 319 -19 q 203 15 240 -2 q 135 59 167 32 q 80 122 103 85 q 43 206 56 159 q 29 312 29 253 l 29 312 q 43 422 29 370 q 84 519 57 474 q 151 599 111 563 q 242 661 190 635 l 242 661 q 251 663 246 663 l 251 663 q 264 658 258 663 q 270 645 270 653 l 270 645 q 266 635 270 640 q 258 628 263 630 l 258 628 q 240 619 255 626 q 203 596 224 611 q 157 556 182 580 q 113 497 133 532 q 79 417 93 462 q 66 312 66 371 l 66 312 q 77 217 66 258 q 108 146 89 176 q 152 93 127 115 q 202 58 176 72 q 254 35 229 43 q 302 23 280 27 q 339 18 324 19 q 359 17 354 17 l 359 17 q 475 36 419 17 q 574 95 530 55 q 648 196 618 135 q 688 343 678 258 l 688 343 q 622 321 657 329 q 550 313 588 313 l 550 313 q 450 326 499 313 q 363 366 401 339 q 303 434 326 394 q 280 529 280 475 l 280 529 q 295 608 280 573 q 337 667 311 643 q 398 705 363 692 q 471 718 433 718 l 471 718 q 533 710 502 718 q 594 688 565 703 q 648 649 623 672 q 692 593 673 625 q 722 518 711 560 q 732 425 732 477 l 732 425 z m 694 385 l 694 385 q 696 423 696 404 l 696 423 q 676 542 696 492 q 623 622 655 591 q 550 668 590 653 q 469 682 509 682 l 469 682 q 410 672 438 682 q 362 642 382 662 q 329 594 341 623 q 317 529 317 565 l 317 529 q 332 461 317 494 q 376 404 347 429 q 449 364 405 378 q 551 349 493 349 l 551 349 q 626 358 590 349 q 694 385 662 368 z"},"P":{"ha":934,"x_min":49,"x_max":919,"o":"m 919 482 l 919 482 q 897 376 919 423 q 833 297 875 330 q 735 247 792 265 q 609 230 678 230 l 609 230 q 595 235 601 230 q 589 249 589 239 l 589 249 q 594 261 589 256 q 607 267 600 267 l 607 267 q 720 281 669 267 q 807 323 771 295 q 863 390 843 350 q 883 482 883 430 l 883 482 q 860 576 883 535 q 795 645 836 617 q 695 688 753 673 q 568 703 637 703 l 568 703 q 441 692 502 703 q 326 662 380 681 q 228 615 272 642 q 153 555 184 587 q 104 485 121 522 q 86 407 86 447 l 86 407 q 98 346 86 372 q 131 302 110 319 q 177 275 151 284 q 232 266 204 266 l 232 266 q 293 273 267 266 q 338 290 320 281 q 366 306 356 298 q 377 314 376 313 l 377 314 q 390 320 382 320 l 390 320 q 403 314 397 320 q 408 301 408 309 l 408 301 q 402 288 408 293 l 402 288 q 390 278 401 287 q 357 258 378 269 q 304 238 335 247 q 232 229 272 229 l 232 229 q 162 241 196 229 q 104 277 129 253 q 64 333 79 300 q 49 407 49 366 l 49 407 q 68 495 49 453 q 120 574 86 537 q 202 641 154 611 q 307 694 249 672 q 430 727 364 715 q 567 739 496 739 l 567 739 q 709 722 645 739 q 821 671 774 704 q 894 590 868 638 q 919 482 919 542 z m 629 598 l 629 598 q 642 593 637 598 q 648 580 648 588 l 648 580 q 645 571 648 575 q 639 563 643 567 l 639 563 q 595 517 611 542 q 570 464 579 492 q 559 403 562 435 q 556 335 556 371 l 556 335 l 556 274 q 545 159 556 213 q 509 63 535 104 q 440 -2 483 22 q 333 -26 397 -26 l 333 -26 q 275 -19 303 -26 q 222 2 247 -12 q 176 35 197 15 q 140 79 155 54 l 140 79 q 138 83 139 81 q 137 88 137 86 l 137 88 q 142 101 137 95 q 156 106 147 106 l 156 106 q 165 104 161 106 q 172 97 169 101 l 172 97 q 243 32 203 54 q 333 10 282 10 l 333 10 q 427 31 390 10 q 484 90 463 53 q 512 176 504 126 q 520 281 520 225 l 520 281 l 520 343 q 522 410 520 375 q 536 479 525 445 q 566 542 546 512 q 620 595 586 572 l 620 595 q 625 597 622 596 q 629 598 627 598 z"},"Q":{"ha":854,"x_min":49,"x_max":1025,"o":"m 525 56 l 525 56 q 384 9 453 23 q 254 -6 315 -6 l 254 -6 q 175 -1 208 -6 q 119 14 142 5 q 83 34 96 22 q 61 57 69 45 q 51 79 54 68 q 49 98 49 90 l 49 98 q 59 134 49 119 q 83 160 68 149 q 116 178 98 171 q 150 189 134 185 l 150 189 q 90 279 110 230 q 70 383 70 328 l 70 383 q 84 476 70 432 q 123 559 98 521 q 182 628 147 597 q 258 682 217 660 q 346 716 299 704 q 442 728 393 728 l 442 728 q 537 716 492 728 q 621 683 582 705 q 691 633 660 662 q 745 567 723 603 q 780 489 768 530 q 792 402 792 447 l 792 402 q 782 322 792 359 q 755 252 772 284 q 715 193 737 220 q 667 144 692 166 q 615 104 642 122 q 564 75 588 87 l 564 75 q 615 42 590 59 q 665 9 641 25 q 713 -20 689 -6 q 759 -44 736 -34 l 759 -44 q 817 -62 789 -57 q 873 -67 846 -67 l 873 -67 q 922 -63 899 -67 q 962 -55 945 -60 q 989 -47 979 -51 q 999 -43 999 -43 l 999 -43 q 1006 -42 1002 -42 l 1006 -42 q 1019 -47 1014 -42 q 1025 -60 1025 -52 l 1025 -60 q 1022 -70 1025 -65 q 1014 -77 1020 -74 l 1014 -77 q 1001 -82 1013 -77 q 971 -91 990 -86 q 927 -100 953 -96 q 873 -104 902 -104 l 873 -104 q 811 -98 843 -104 q 744 -77 778 -92 l 744 -77 q 691 -50 718 -65 q 637 -17 665 -34 q 582 20 610 1 q 525 56 554 38 z m 529 96 l 529 96 q 615 146 574 117 q 687 213 655 175 q 736 299 718 251 q 755 403 755 346 l 755 403 q 731 515 755 463 q 665 607 707 568 q 566 669 623 646 q 442 692 509 692 l 442 692 q 355 681 397 692 q 276 650 313 670 q 208 603 239 630 q 154 541 177 575 q 119 467 132 506 q 107 385 107 427 l 107 385 q 115 323 107 352 q 135 272 122 295 q 163 230 147 249 q 196 197 179 211 l 196 197 q 209 198 203 197 q 223 198 216 198 l 223 198 q 271 195 245 198 q 326 185 296 192 l 326 185 q 432 148 381 172 q 529 96 483 124 z m 487 79 l 487 79 q 429 112 458 98 q 372 136 401 126 q 311 152 342 146 q 245 161 280 158 l 245 161 q 271 147 259 151 q 287 141 283 142 l 287 141 q 299 124 299 135 l 299 124 q 293 111 299 116 q 281 106 288 106 l 281 106 q 269 109 275 106 l 269 109 q 261 112 268 109 q 243 121 254 115 q 216 136 231 127 q 184 159 201 146 l 184 159 q 154 156 171 159 q 122 145 137 152 q 96 126 107 137 q 85 98 85 114 l 85 98 q 93 74 85 86 q 120 52 101 62 q 172 36 139 42 q 255 29 205 29 l 255 29 q 299 31 274 29 q 354 39 324 33 q 417 53 383 44 q 487 79 451 63 z"},"R":{"ha":1012,"x_min":49,"x_max":1068,"o":"m 629 598 l 629 598 q 642 593 637 598 q 648 580 648 588 l 648 580 q 639 563 648 569 l 639 563 q 626 554 637 563 q 601 527 614 546 q 574 478 587 509 q 558 403 562 448 l 558 403 q 557 387 557 395 q 556 372 557 379 l 556 372 q 574 373 565 373 q 595 374 584 374 l 595 374 q 663 366 630 374 q 723 344 695 358 l 723 344 q 831 419 793 372 q 869 523 869 466 l 869 523 q 847 600 869 566 q 787 656 826 633 q 694 691 748 679 q 576 704 640 704 l 576 704 q 461 695 520 704 q 348 669 403 687 q 246 627 294 652 q 163 569 198 602 q 106 495 127 536 q 86 407 86 455 l 86 407 q 98 345 86 372 q 131 301 110 319 q 177 274 151 283 q 232 265 204 265 l 232 265 q 292 272 267 265 q 336 287 318 279 q 363 302 354 295 q 373 310 372 309 l 373 310 q 380 316 376 313 q 390 319 385 319 l 390 319 q 402 314 397 319 q 408 301 408 309 l 408 301 q 402 288 408 293 l 402 288 q 390 278 401 287 q 357 257 378 268 q 304 238 335 247 q 233 229 273 229 l 233 229 q 163 241 196 229 q 104 276 129 253 q 64 332 79 299 q 49 407 49 365 l 49 407 q 68 496 49 454 q 122 576 87 539 q 205 643 156 613 q 311 695 253 673 q 437 728 370 716 q 575 740 503 740 l 575 740 q 708 725 647 740 q 813 684 769 711 q 881 617 857 657 q 906 528 906 578 l 906 528 q 868 409 906 462 q 757 319 830 355 l 757 319 q 799 266 784 296 q 822 204 814 235 q 832 145 830 173 q 835 97 834 116 l 835 97 q 840 52 836 69 q 852 25 844 35 q 870 11 859 15 q 897 8 881 8 l 897 8 q 938 18 919 8 q 971 44 956 29 q 997 78 986 60 q 1017 113 1009 97 q 1029 139 1024 128 q 1033 150 1033 149 l 1033 150 q 1050 162 1038 162 l 1050 162 q 1063 156 1058 162 q 1068 144 1068 151 l 1068 144 q 1067 137 1068 141 l 1067 137 q 1062 122 1067 135 q 1047 91 1057 109 q 1022 52 1037 73 q 989 13 1008 31 q 945 -17 969 -5 q 892 -28 921 -28 l 892 -28 q 848 -20 866 -28 q 820 4 831 -12 q 804 43 809 20 q 798 95 799 65 l 798 95 q 796 124 797 107 q 793 159 795 141 q 785 198 790 178 q 771 237 780 218 q 750 273 763 256 q 717 303 736 291 l 717 303 q 639 283 680 291 q 556 276 599 276 l 556 276 l 556 261 q 544 149 556 201 q 505 57 532 96 q 436 -4 479 19 q 333 -26 394 -26 l 333 -26 q 273 -18 302 -26 q 218 4 243 -10 q 172 38 192 19 q 140 80 151 57 l 140 80 q 137 88 137 83 l 137 88 q 142 101 137 95 q 156 106 147 106 l 156 106 q 172 97 167 106 l 172 97 q 200 62 183 78 q 238 34 217 46 q 283 17 259 23 q 333 10 308 10 l 333 10 q 418 28 383 10 q 477 79 454 46 q 509 158 499 112 q 520 261 520 204 l 520 261 l 520 280 q 494 295 503 286 q 484 319 484 305 l 484 319 q 493 344 484 333 q 520 362 502 355 l 520 362 q 520 384 520 373 q 521 406 521 395 l 521 406 q 532 469 524 441 q 552 518 541 497 q 574 553 563 539 q 596 577 586 568 q 613 591 606 587 q 621 596 620 596 l 621 596 q 629 598 625 598 z m 675 326 l 675 326 q 659 331 667 328 q 642 335 651 333 q 622 338 633 336 q 597 339 611 339 l 597 339 q 556 336 572 339 l 556 336 l 556 335 l 556 312 q 617 315 585 312 q 675 326 648 319 z"},"S":{"ha":821,"x_min":49,"x_max":889,"o":"m 886 513 l 886 513 q 879 502 884 506 q 869 498 875 498 l 869 498 q 854 504 860 498 q 849 517 849 509 l 849 517 q 851 531 849 524 q 852 545 852 538 l 852 545 q 830 609 852 581 q 768 656 808 637 q 670 686 728 676 q 542 696 612 696 l 542 696 q 432 689 487 696 q 327 669 377 682 q 232 635 276 655 q 156 588 188 615 q 105 529 124 562 q 86 458 86 497 l 86 458 q 99 406 86 428 q 135 366 112 383 q 188 337 157 349 q 254 317 218 325 q 328 304 290 309 q 406 295 367 299 l 406 295 l 481 289 q 582 279 537 284 q 660 265 626 273 l 660 265 q 743 225 716 251 q 770 154 770 198 l 770 154 q 746 80 770 112 q 682 25 723 47 q 587 -8 642 3 q 471 -19 533 -19 l 471 -19 q 353 -10 404 -19 q 267 10 302 -1 q 215 30 233 21 q 195 41 197 40 l 195 41 q 187 56 187 45 l 187 56 q 192 70 187 64 q 205 75 198 75 l 205 75 q 215 72 210 75 l 215 72 q 232 63 215 72 q 281 44 248 55 q 361 26 313 34 q 472 18 409 18 l 472 18 q 583 28 535 18 q 665 56 632 38 q 715 99 698 75 q 731 153 731 124 l 731 153 q 725 182 731 170 q 708 204 719 195 q 683 219 698 213 q 650 230 668 226 l 650 230 q 611 238 632 235 q 567 244 589 242 q 522 249 544 247 q 477 252 499 250 l 477 252 l 402 259 q 247 281 313 266 q 137 321 181 297 q 71 379 93 345 q 49 458 49 413 l 49 458 q 70 542 49 503 q 126 611 90 580 q 210 664 162 642 q 313 702 258 687 q 426 725 368 717 q 542 732 485 732 l 542 732 q 665 724 612 732 q 755 702 717 715 q 816 671 792 688 q 854 638 840 654 l 854 638 q 889 545 889 597 l 889 545 q 886 513 889 528 z"},"T":{"ha":877,"x_min":20,"x_max":1122,"o":"m 854 680 l 854 680 q 867 675 861 680 q 873 661 873 669 l 873 661 q 864 646 873 651 l 864 646 q 850 636 863 645 q 820 609 837 627 l 820 609 q 895 604 856 604 l 895 604 q 962 610 932 604 q 1017 624 993 615 q 1059 645 1041 633 q 1088 672 1077 657 l 1088 672 q 1095 677 1091 675 q 1104 680 1099 680 l 1104 680 q 1116 674 1111 680 q 1122 661 1122 668 l 1122 661 q 1118 650 1122 654 l 1118 650 q 1087 620 1106 635 q 1040 593 1067 605 q 976 574 1012 582 q 895 567 939 567 l 895 567 q 844 570 870 567 q 793 576 819 572 l 793 576 q 773 540 782 560 q 757 496 763 520 l 757 496 q 746 409 747 455 q 744 315 745 363 q 739 220 743 268 q 721 129 735 173 l 721 129 q 691 68 709 96 q 645 19 672 40 q 583 -14 618 -2 q 504 -26 548 -26 l 504 -26 q 375 2 433 -26 q 275 92 318 31 l 275 92 q 271 99 274 94 q 269 107 269 103 l 269 107 q 274 121 269 114 q 288 127 279 127 l 288 127 q 297 124 293 127 q 304 118 302 122 l 304 118 q 388 37 340 63 q 504 11 436 11 l 504 11 q 569 20 540 11 q 620 46 598 29 q 658 87 642 63 q 685 143 674 111 l 685 143 q 700 221 697 177 q 704 315 703 266 q 708 412 705 363 q 721 504 710 461 l 721 504 q 735 547 727 527 q 754 583 744 566 l 754 583 q 624 616 688 596 q 497 656 559 637 q 378 688 436 674 q 270 702 321 702 l 270 702 q 184 688 224 702 q 116 651 145 675 q 72 594 88 627 q 56 519 56 560 l 56 519 q 67 464 56 489 q 96 421 77 439 q 140 393 114 403 q 195 382 165 382 l 195 382 q 252 392 227 382 q 296 416 277 401 q 328 446 315 430 q 350 477 342 463 q 363 501 359 492 q 367 511 367 511 l 367 511 q 374 520 369 516 q 385 523 379 523 l 385 523 q 398 517 393 523 q 403 504 403 512 l 403 504 q 403 502 403 503 q 402 499 403 500 l 402 499 q 397 486 402 498 q 382 457 392 474 q 355 421 372 440 q 316 385 339 401 q 263 357 293 368 q 195 346 233 346 l 195 346 q 126 359 158 346 q 70 395 94 372 q 33 450 46 418 q 20 519 20 481 l 20 519 q 39 609 20 569 q 91 678 58 649 q 171 723 125 707 q 271 738 217 738 l 271 738 q 349 731 310 738 q 429 713 389 725 q 512 688 470 702 q 597 661 554 675 q 685 635 641 647 q 776 615 730 623 l 776 615 q 801 642 789 630 q 822 661 813 653 q 838 673 832 668 q 845 677 844 677 l 845 677 q 854 680 850 680 z"},"U":{"ha":993,"x_min":29,"x_max":1047,"o":"m 786 316 l 786 316 q 724 164 758 229 q 654 56 690 99 q 578 -8 617 13 q 500 -29 539 -29 l 500 -29 q 430 -16 458 -29 q 385 21 402 -2 q 360 75 367 44 q 352 144 352 107 l 352 144 q 361 235 352 187 q 382 334 371 284 q 403 433 394 384 q 412 527 412 482 l 412 527 q 377 633 412 595 q 275 670 342 670 l 275 670 q 195 656 233 670 q 129 619 157 643 q 83 562 100 595 q 66 489 66 528 l 66 489 q 73 442 66 461 q 89 408 79 422 q 109 386 98 395 q 130 374 120 378 q 147 368 140 369 q 155 366 154 366 l 155 366 q 167 360 162 365 q 171 348 171 354 l 171 348 q 165 335 171 340 q 152 330 160 330 l 152 330 q 147 330 151 330 q 143 331 144 331 l 143 331 q 103 346 124 336 q 67 376 83 357 q 40 422 50 395 q 29 489 29 450 l 29 489 q 49 576 29 536 q 103 645 69 616 q 181 690 137 674 q 274 706 226 706 l 274 706 q 348 694 315 706 q 403 658 380 682 q 437 602 425 635 q 449 527 449 569 l 449 527 q 440 432 449 481 q 419 333 430 383 q 398 236 408 284 q 389 144 389 188 l 389 144 q 394 88 389 113 q 413 44 400 63 q 448 16 426 26 q 500 6 469 6 l 500 6 q 545 15 521 6 q 594 46 568 24 q 647 107 620 69 q 704 206 675 146 l 704 206 q 742 301 725 250 q 775 402 760 352 q 800 500 789 453 q 818 583 811 547 q 830 642 826 620 q 833 665 833 664 l 833 665 q 840 676 835 671 q 852 680 845 680 l 852 680 q 865 674 860 680 q 870 662 870 669 l 870 662 q 867 641 870 660 q 860 592 865 622 q 850 522 856 562 q 839 438 845 482 q 828 350 833 395 q 818 264 822 305 q 811 188 813 223 q 808 129 808 153 l 808 129 q 830 36 808 66 q 887 5 852 5 l 887 5 q 931 21 911 5 q 968 61 952 38 q 994 108 983 83 q 1011 149 1005 132 l 1011 149 q 1018 159 1013 155 q 1028 162 1022 162 l 1028 162 q 1042 156 1037 162 q 1047 144 1047 150 l 1047 144 q 1046 138 1047 142 l 1046 138 q 1038 118 1044 132 q 1023 85 1033 104 q 1001 46 1014 66 q 971 9 988 25 q 932 -19 954 -8 q 886 -30 911 -30 l 886 -30 q 836 -19 858 -30 q 800 12 815 -8 q 778 62 786 33 q 771 129 771 92 l 771 129 q 775 210 771 161 q 786 316 779 259 z"},"V":{"ha":1035,"x_min":39,"x_max":1054,"o":"m 650 26 l 650 26 q 803 167 735 92 q 919 318 872 242 q 992 470 967 395 q 1018 615 1018 546 l 1018 615 q 1009 690 1018 655 q 984 750 1000 725 q 946 789 968 775 q 895 804 923 804 l 895 804 l 885 804 q 871 809 877 804 q 866 822 866 813 l 866 822 q 874 837 866 833 q 894 841 883 841 l 894 841 q 959 824 929 841 q 1010 778 989 808 q 1042 708 1031 748 q 1054 620 1054 667 l 1054 620 q 1028 461 1054 542 q 949 298 1001 380 q 820 134 897 215 q 643 -25 743 52 l 643 -25 q 637 -30 641 -27 q 627 -32 633 -32 l 627 -32 q 614 -26 618 -32 q 609 -12 609 -20 l 609 -12 q 610 2 609 -8 q 612 29 611 13 q 614 63 613 44 q 617 101 616 82 q 618 139 618 121 q 619 171 619 157 l 619 171 q 603 368 620 278 q 550 525 586 459 q 457 629 514 592 q 320 667 400 667 l 320 667 q 214 650 260 667 q 138 607 168 634 q 91 546 107 580 q 76 477 76 512 l 76 477 q 86 421 76 446 q 115 379 97 396 q 158 353 133 362 q 212 344 183 344 l 212 344 q 256 349 236 344 q 291 361 276 354 q 313 373 305 368 q 322 380 321 379 l 322 380 q 327 383 324 382 q 333 384 331 384 l 333 384 q 346 379 341 384 q 352 367 352 375 l 352 367 q 345 353 352 357 l 345 353 q 334 344 344 352 q 307 329 325 337 q 266 314 290 321 q 211 308 241 308 l 211 308 q 143 320 175 308 q 88 354 111 332 q 52 408 65 377 q 39 477 39 439 l 39 477 q 57 559 39 519 q 111 631 75 600 q 198 682 146 663 q 318 702 250 702 l 318 702 q 470 663 407 702 q 575 555 534 625 q 636 387 617 485 q 656 168 656 289 l 656 168 q 655 99 656 135 q 650 26 653 63 z"},"W":{"ha":1392,"x_min":39,"x_max":1368,"o":"m 872 557 l 560 -22 q 543 -32 554 -32 l 543 -32 q 530 -27 535 -32 q 525 -13 525 -21 l 525 -13 q 525 7 525 -12 q 526 59 526 26 l 526 59 q 526 147 526 101 q 525 243 526 194 q 519 339 523 291 q 503 430 514 387 q 477 512 493 474 q 434 577 460 549 q 373 620 408 604 q 289 636 337 636 l 289 636 q 202 619 241 636 q 135 575 163 603 q 92 511 107 548 q 76 433 76 474 l 76 433 q 89 367 76 397 q 123 315 101 337 q 173 281 144 293 q 233 269 201 269 l 233 269 q 277 275 257 269 q 312 290 297 282 q 333 304 326 297 q 342 311 341 311 l 342 311 q 355 316 347 316 l 355 316 q 368 311 362 316 q 373 298 373 306 l 373 298 q 368 286 373 291 l 368 286 q 357 276 367 285 q 329 258 347 268 q 287 240 312 248 q 234 232 263 232 l 234 232 q 158 248 193 232 q 96 290 123 263 q 54 353 70 316 q 39 433 39 390 l 39 433 q 58 525 39 482 q 110 601 77 569 q 188 653 143 634 q 287 671 233 671 l 287 671 q 403 647 355 671 q 481 581 450 622 q 529 486 512 540 q 554 373 546 432 q 563 255 562 314 q 564 144 564 196 l 564 144 q 564 123 564 134 q 564 100 564 111 q 564 79 564 89 q 563 63 563 69 l 563 63 l 891 668 q 906 677 895 677 l 906 677 q 920 672 915 677 q 925 659 925 666 l 925 659 q 922 641 925 656 q 915 600 919 625 q 906 541 911 575 q 897 469 901 508 q 890 389 893 431 q 887 306 887 347 l 887 306 q 894 182 887 236 q 918 91 901 128 q 962 35 935 54 q 1028 16 989 16 l 1028 16 q 1096 31 1064 16 q 1156 73 1128 46 q 1208 136 1184 100 q 1251 214 1232 172 q 1285 301 1271 256 q 1310 390 1300 346 q 1325 477 1320 435 q 1331 554 1331 519 l 1331 554 q 1316 671 1331 617 q 1270 758 1302 724 l 1270 758 q 1265 770 1265 763 l 1265 770 q 1271 783 1265 778 q 1284 789 1276 789 l 1284 789 q 1297 783 1292 789 l 1297 783 q 1329 738 1315 763 q 1351 683 1342 713 q 1364 621 1359 654 q 1368 553 1368 588 l 1368 553 q 1357 436 1368 500 q 1327 309 1347 373 q 1278 186 1307 246 q 1211 81 1249 126 q 1127 8 1173 35 q 1028 -20 1082 -20 l 1028 -20 q 944 3 978 -20 q 889 68 910 25 q 859 172 868 111 q 850 310 850 233 l 850 310 q 852 375 850 341 q 858 441 854 409 q 865 503 861 473 q 872 557 868 533 l 872 557 z"},"X":{"ha":982,"x_min":39,"x_max":1021,"o":"m 964 4 l 964 4 q 958 -9 964 -3 q 945 -14 953 -15 l 945 -14 q 868 1 902 -11 q 808 33 834 14 q 760 80 781 53 q 721 139 739 106 q 686 211 703 172 q 650 294 668 250 l 650 294 q 479 136 568 214 q 294 -17 391 59 l 294 -17 q 283 -25 288 -21 q 276 -30 279 -28 q 271 -33 273 -32 q 266 -34 269 -34 l 266 -34 q 253 -28 258 -34 q 247 -15 247 -22 l 247 -15 q 250 -5 247 -10 l 250 -5 q 252 -3 251 -3 q 255 0 253 -2 q 260 4 257 1 q 271 12 264 7 l 271 12 q 460 168 369 89 q 634 330 551 248 l 634 330 q 633 333 633 332 q 632 336 633 335 l 632 336 q 593 428 611 384 q 556 511 575 472 q 516 581 537 549 q 466 636 494 613 q 403 671 438 659 q 319 684 367 684 l 319 684 q 263 677 292 684 q 208 656 235 669 q 157 624 181 643 q 115 581 133 604 q 86 529 97 557 q 76 471 76 501 l 76 471 q 84 422 76 444 q 107 384 92 400 q 141 359 122 368 q 185 350 161 350 l 185 350 q 230 358 210 350 q 265 374 251 365 q 288 391 280 383 q 296 399 296 399 l 296 399 q 310 404 302 404 l 310 404 q 322 399 317 404 q 328 386 328 393 l 328 386 q 322 373 328 378 l 322 373 q 311 362 321 372 q 283 342 301 353 q 240 322 265 331 q 185 313 215 313 l 185 313 q 127 325 154 313 q 81 358 101 337 q 50 408 62 379 q 39 471 39 437 l 39 471 q 50 537 39 505 q 81 597 62 569 q 128 647 101 625 q 185 686 154 670 q 250 711 216 703 q 318 720 284 720 l 318 720 q 410 708 371 720 q 481 672 450 695 q 535 616 511 649 q 579 543 559 583 q 620 456 600 503 q 662 358 639 409 l 662 358 q 840 552 759 456 q 987 744 922 649 l 987 744 q 1002 752 993 752 l 1002 752 q 1016 746 1011 752 q 1021 734 1021 741 l 1021 734 q 1018 723 1021 727 l 1018 723 q 865 524 950 625 q 678 322 780 423 l 678 322 q 711 245 695 282 q 744 175 727 208 q 779 116 760 143 q 822 69 798 89 q 876 37 846 49 q 945 22 906 25 l 945 22 q 958 17 953 22 q 964 4 964 12 z"},"Y":{"ha":1014,"x_min":39,"x_max":1014,"o":"m 1014 26 l 1014 26 q 995 8 1014 11 l 995 8 q 982 6 994 8 q 953 0 971 4 q 912 -12 935 -5 q 865 -29 889 -19 l 865 -29 q 868 -82 867 -56 q 869 -133 869 -108 l 869 -133 q 861 -233 869 -185 q 835 -321 854 -282 q 786 -382 816 -359 q 709 -406 755 -406 l 709 -406 q 662 -396 683 -406 q 626 -370 641 -387 q 604 -332 612 -354 q 596 -285 596 -310 l 596 -285 q 610 -215 596 -252 q 652 -141 624 -178 q 724 -69 680 -104 q 827 -6 767 -34 l 827 -6 q 823 59 824 25 q 821 125 821 93 l 821 125 q 822 161 821 141 q 825 206 823 182 q 829 256 827 230 q 835 310 832 283 l 835 310 q 772 164 806 227 q 702 57 739 100 q 625 -7 665 15 q 543 -29 585 -29 l 543 -29 q 480 -17 507 -29 q 435 16 453 -5 q 408 69 417 38 q 399 138 399 100 l 399 138 q 410 246 399 188 q 434 364 421 304 l 434 364 q 450 436 442 399 q 458 504 458 472 l 458 504 q 447 570 458 540 q 417 624 437 601 q 369 659 397 646 q 303 672 340 672 l 303 672 q 215 654 256 672 q 143 604 173 636 q 94 529 112 573 q 76 435 76 486 l 76 435 q 83 373 76 404 q 106 317 90 343 q 145 273 121 292 q 202 250 169 255 l 202 250 q 214 243 209 249 q 218 231 218 238 l 218 231 q 213 218 218 224 q 200 212 208 212 l 200 212 q 181 216 195 212 q 149 229 167 220 q 111 255 131 239 q 76 295 92 271 q 50 353 60 319 q 39 431 39 386 l 39 431 q 60 544 39 493 q 116 631 81 595 q 200 688 152 668 q 302 708 248 708 l 302 708 q 384 693 348 708 q 444 649 419 677 q 481 584 468 622 q 494 503 494 546 l 494 503 q 493 470 494 487 q 487 436 491 453 l 487 436 q 471 359 480 398 q 454 282 462 320 q 441 208 446 244 q 436 140 436 171 l 436 140 q 442 87 436 111 q 460 45 447 63 q 493 17 473 27 q 544 7 514 7 l 544 7 q 652 57 599 7 q 753 204 704 106 l 753 204 q 788 285 771 241 q 817 372 804 328 q 841 455 830 415 q 858 526 851 495 q 869 576 865 557 q 873 596 873 595 l 873 596 q 879 607 874 603 q 891 611 884 611 l 891 611 q 904 605 899 611 q 909 593 909 600 l 909 593 q 907 575 909 591 q 900 533 904 559 q 891 474 896 508 q 881 403 886 440 l 881 403 q 873 340 877 375 q 865 266 869 304 q 860 190 862 228 q 857 121 857 152 l 857 121 q 859 66 857 95 q 863 9 860 38 l 863 9 q 904 24 883 18 q 942 35 924 30 q 974 42 960 40 q 993 45 988 44 l 993 45 q 1008 40 1003 46 q 1014 26 1014 35 z m 830 -46 l 830 -46 q 746 -97 783 -67 q 685 -159 710 -127 q 646 -225 660 -192 q 633 -285 633 -257 l 633 -285 q 638 -318 633 -303 q 653 -344 644 -333 q 677 -362 663 -356 q 709 -369 691 -369 l 709 -369 q 755 -357 735 -369 q 788 -327 774 -346 q 810 -284 802 -308 q 824 -233 819 -259 q 831 -181 829 -207 q 833 -132 833 -155 l 833 -132 q 832 -90 833 -111 q 830 -46 831 -68 z"},"Z":{"ha":911,"x_min":29,"x_max":911,"o":"m 910 628 l 910 628 q 911 622 911 624 l 911 622 q 903 607 911 612 l 903 607 q 802 529 856 570 q 694 444 749 488 q 582 356 638 400 q 474 270 526 312 q 375 188 422 228 q 290 117 328 149 q 224 59 251 84 q 184 20 197 34 l 184 20 q 241 29 207 23 q 323 40 275 35 q 430 49 370 45 q 563 53 490 53 l 563 53 q 708 47 631 53 q 874 27 786 42 l 874 27 q 885 21 881 26 q 890 10 890 17 l 890 10 q 884 -4 890 1 q 871 -10 879 -10 l 871 -10 q 867 -9 869 -10 l 867 -9 q 704 10 780 5 q 562 16 629 16 l 562 16 q 452 13 503 16 q 356 6 400 10 q 278 -2 313 2 q 219 -10 244 -7 l 219 -10 q 204 -13 212 -11 q 189 -15 196 -14 q 176 -17 182 -16 q 166 -18 169 -18 l 166 -18 q 145 -11 154 -18 q 136 7 136 -5 l 136 7 q 139 21 136 14 q 150 37 142 29 l 150 37 q 190 77 166 54 q 254 135 214 100 l 254 135 q 310 182 277 155 q 381 241 342 209 q 463 307 420 272 q 550 376 506 341 q 636 445 594 411 q 717 509 679 479 q 786 563 755 539 q 839 604 818 588 l 839 604 q 734 615 787 608 q 628 632 680 623 q 527 651 577 642 q 434 669 478 661 q 352 682 390 677 q 284 688 313 688 l 284 688 q 198 676 238 688 q 129 644 159 665 q 83 594 100 623 q 66 529 66 564 l 66 529 q 74 482 66 504 q 99 444 83 460 q 141 418 116 427 q 199 408 166 408 l 199 408 q 262 419 231 408 q 320 451 293 430 l 320 451 q 332 455 326 455 l 332 455 q 344 449 339 455 q 350 437 350 444 l 350 437 q 343 422 350 427 l 343 422 q 274 384 312 397 q 199 372 237 372 l 199 372 q 125 385 156 372 q 72 419 93 397 q 40 469 50 440 q 29 529 29 498 l 29 529 q 49 609 29 573 q 104 671 69 646 q 185 710 138 696 q 285 724 231 724 l 285 724 q 362 718 320 724 q 453 704 405 712 q 553 684 501 695 q 661 665 606 674 q 771 648 715 655 q 881 640 826 642 l 881 640 l 892 640 q 902 637 897 640 q 910 628 907 633 z"},"a":{"ha":344,"x_min":10,"x_max":397,"o":"m 396 136 l 396 136 q 388 120 394 132 q 372 91 382 107 q 350 58 363 75 q 322 25 337 40 q 288 1 306 11 q 250 -8 270 -8 l 250 -8 q 202 10 222 -8 q 174 55 183 28 l 174 55 q 135 11 158 27 q 89 -5 112 -5 l 89 -5 q 56 1 71 -5 q 31 20 42 8 q 15 48 21 32 q 10 83 10 64 l 10 83 q 23 150 10 121 q 56 199 36 179 q 100 228 76 218 q 146 238 124 238 l 146 238 q 174 234 162 238 q 196 225 187 229 q 210 216 205 220 q 215 211 215 211 l 215 211 q 221 198 221 205 l 221 198 q 215 185 221 190 q 203 179 210 179 l 203 179 q 189 185 195 179 l 189 185 q 185 188 188 186 q 176 194 182 191 q 162 199 170 197 q 144 201 154 201 l 144 201 q 111 194 128 201 q 80 173 94 188 q 56 137 66 159 q 47 85 47 115 l 47 85 q 49 67 47 76 q 56 49 51 57 q 69 37 61 42 q 89 32 77 32 l 89 32 q 110 38 98 32 q 132 56 121 43 q 151 86 142 68 q 163 130 159 105 l 163 130 q 169 142 164 137 q 182 146 174 146 l 182 146 q 194 141 188 146 q 199 129 199 136 l 199 129 q 201 103 200 120 q 208 69 203 86 q 223 41 213 53 q 251 28 233 28 l 251 28 q 275 35 263 28 q 297 52 286 41 q 318 75 308 62 q 336 103 328 89 q 351 129 345 116 q 362 151 357 142 l 362 151 q 369 159 364 156 q 379 162 374 162 l 379 162 q 392 156 387 162 q 397 143 397 150 l 397 143 q 396 136 397 140 z"},"b":{"ha":378,"x_min":10,"x_max":432,"o":"m 430 135 l 430 135 q 424 123 429 132 q 411 102 419 114 q 393 77 403 90 q 369 52 382 63 q 342 34 356 41 q 312 26 327 26 l 312 26 q 269 35 286 26 q 240 56 251 44 l 240 56 q 221 24 232 39 q 196 0 209 10 q 167 -17 182 -11 q 135 -22 151 -22 l 135 -22 q 84 -5 105 -22 q 50 42 63 13 q 28 111 36 72 q 16 193 20 150 q 11 280 12 236 q 10 363 10 324 l 10 363 q 14 494 10 439 q 26 589 19 550 q 44 652 34 627 q 65 689 54 676 q 88 708 76 703 q 111 712 100 712 l 111 712 q 143 702 129 712 q 166 672 157 691 q 181 625 176 652 q 186 565 186 598 l 186 565 q 174 457 186 513 q 145 346 163 401 q 105 237 127 291 q 62 136 83 184 l 62 136 q 71 90 65 112 q 86 52 77 68 q 108 25 95 35 q 137 15 121 15 l 137 15 q 168 24 154 15 q 194 49 183 34 q 211 84 205 64 q 217 124 217 104 l 217 124 q 214 152 217 138 q 206 177 211 166 q 192 194 200 188 q 172 201 184 201 l 172 201 q 158 198 163 201 q 151 189 153 194 q 148 180 148 185 q 147 174 147 176 l 147 174 q 150 161 147 167 q 162 148 153 154 l 162 148 q 170 132 170 143 l 170 132 q 164 119 170 124 q 152 114 159 114 l 152 114 q 135 120 142 114 q 122 135 127 126 q 113 154 116 144 q 110 173 110 165 l 110 173 q 115 199 110 188 q 129 220 120 211 q 148 233 137 229 q 171 238 159 238 l 171 238 q 208 228 192 238 q 233 202 223 218 q 249 166 244 186 q 253 124 253 145 l 253 124 q 252 100 253 112 l 252 100 q 258 90 254 96 q 270 78 263 83 q 288 67 277 72 q 312 63 298 63 l 312 63 q 336 72 323 63 q 360 94 348 81 q 381 123 371 108 q 397 152 391 139 l 397 152 q 404 159 399 157 q 414 162 408 162 l 414 162 q 427 156 422 162 q 432 143 432 150 l 432 143 q 430 135 432 140 z m 53 198 l 53 198 q 86 284 69 239 q 117 376 104 330 q 140 471 131 423 q 148 565 148 519 l 148 565 q 147 602 148 583 q 141 638 145 622 q 129 665 136 654 q 109 675 121 675 l 109 675 q 99 670 105 675 q 86 652 93 665 q 73 616 80 639 q 60 558 66 593 q 51 473 55 522 q 47 355 47 423 l 47 355 q 48 310 47 333 q 49 266 48 287 q 51 227 50 245 q 53 198 52 209 z"},"c":{"ha":286,"x_min":20,"x_max":340,"o":"m 338 135 l 338 135 q 328 116 335 130 q 309 84 321 102 q 280 47 297 66 q 242 12 264 28 q 194 -14 221 -4 q 136 -24 167 -24 l 136 -24 q 87 -14 108 -24 q 50 14 65 -4 q 27 57 35 32 q 20 112 20 82 l 20 112 q 28 167 20 142 q 51 212 36 193 q 84 242 65 231 q 125 253 103 253 l 125 253 q 154 247 141 253 q 176 232 167 242 q 190 212 185 223 q 195 189 195 201 l 195 189 q 193 169 195 179 q 186 153 190 160 q 176 142 182 146 q 166 138 171 138 l 166 138 q 152 143 157 138 q 147 156 147 148 l 147 156 q 149 163 147 160 q 153 169 150 166 q 156 177 155 172 q 158 189 158 182 l 158 189 q 149 208 158 199 q 125 216 139 216 l 125 216 q 98 208 111 216 q 77 185 86 199 q 62 153 67 171 q 56 113 56 134 l 56 113 q 61 75 56 93 q 76 43 66 57 q 100 21 85 29 q 136 12 115 12 l 136 12 q 185 22 162 12 q 226 46 207 31 q 258 78 244 61 q 282 111 272 95 q 298 137 292 126 q 305 152 304 149 l 305 152 q 311 159 307 157 q 321 162 316 162 l 321 162 q 335 156 330 162 q 340 143 340 150 l 340 143 q 338 135 340 140 z"},"d":{"ha":365,"x_min":10,"x_max":419,"o":"m 208 142 l 208 142 q 277 29 232 29 l 277 29 q 311 42 295 29 q 341 74 327 55 q 366 114 355 93 q 383 150 376 135 l 383 150 q 400 162 388 162 l 400 162 q 414 156 408 162 q 419 144 419 150 l 419 144 q 417 137 419 140 l 417 137 q 407 115 414 128 q 391 85 401 101 q 370 52 382 69 q 344 22 358 36 q 314 1 330 9 q 281 -8 298 -8 l 281 -8 q 225 15 248 -8 q 184 90 201 38 l 184 90 q 137 18 161 40 q 85 -5 113 -5 l 85 -5 q 57 0 70 -5 q 33 15 43 4 q 16 43 22 26 q 10 84 10 60 l 10 84 q 21 146 10 118 q 52 195 33 174 q 93 226 70 215 q 138 237 116 237 l 138 237 q 151 232 146 237 q 156 219 156 227 l 156 219 q 152 207 156 212 q 140 201 147 202 l 140 201 q 109 191 125 199 q 78 170 92 184 q 55 135 64 156 q 46 83 46 113 l 46 83 q 56 45 46 59 q 85 32 66 32 l 85 32 q 102 36 93 32 q 121 52 111 40 q 143 87 131 64 q 169 146 155 109 l 169 146 q 154 245 161 189 q 147 371 147 301 l 147 371 q 149 434 147 401 q 156 498 151 467 q 167 558 160 530 q 185 608 175 586 q 210 642 196 629 q 242 654 224 654 l 242 654 q 270 646 258 654 q 288 621 281 637 q 298 583 295 605 q 302 535 302 562 l 302 535 q 292 422 302 479 q 268 313 282 365 q 237 218 253 262 q 208 142 221 174 z m 265 536 l 265 536 q 264 562 265 548 q 261 589 264 576 q 254 609 258 601 q 242 618 250 618 l 242 618 q 219 596 230 618 q 201 540 209 575 q 189 461 193 505 q 184 372 184 417 l 184 372 q 188 286 184 329 q 195 209 191 243 l 195 209 q 222 286 209 247 q 244 368 235 326 q 260 451 254 409 q 265 536 265 494 z"},"e":{"ha":255,"x_min":20,"x_max":309,"o":"m 77 54 l 77 54 q 104 31 87 40 q 143 22 120 22 l 143 22 q 187 34 167 22 q 222 64 206 45 q 251 105 238 83 q 274 151 264 128 l 274 151 q 281 159 276 157 q 291 162 285 162 l 291 162 q 304 156 299 162 q 309 144 309 150 l 309 144 q 309 139 309 141 q 307 136 308 138 l 307 136 q 234 24 273 62 q 144 -15 194 -14 l 144 -15 q 88 -2 111 -15 q 49 30 64 10 q 27 75 34 50 q 20 125 20 100 l 20 125 q 26 170 20 149 q 43 207 32 191 q 71 231 55 223 q 105 240 86 240 l 105 240 q 128 236 117 240 q 147 222 139 231 q 162 202 156 214 q 167 174 167 189 l 167 174 q 160 136 167 154 q 141 104 153 119 q 113 76 129 88 q 77 54 96 63 z m 63 85 l 63 85 q 90 102 78 92 q 111 123 103 111 q 125 148 120 135 q 130 174 130 161 l 130 174 q 123 196 130 188 q 105 204 115 204 l 105 204 q 83 196 92 204 q 68 177 74 189 q 59 151 62 166 q 57 123 57 137 l 57 123 q 58 104 57 114 q 63 85 60 94 z"},"f":{"ha":222,"x_min":20,"x_max":276,"o":"m 57 -24 l 57 -24 q 122 13 93 -8 q 175 57 152 34 q 215 105 198 81 q 241 151 231 129 l 241 151 q 257 162 245 162 l 257 162 q 271 156 266 162 q 276 144 276 150 l 276 144 q 274 136 276 140 l 274 136 q 247 87 264 112 q 207 36 230 61 q 151 -11 183 12 q 79 -53 120 -34 l 79 -53 q 125 -114 105 -81 q 157 -184 144 -147 q 177 -257 170 -220 q 183 -327 183 -293 l 183 -327 q 177 -385 183 -358 q 161 -432 172 -412 q 134 -464 150 -452 q 99 -475 119 -475 l 99 -475 q 53 -453 69 -475 q 30 -393 37 -432 q 21 -303 22 -355 q 20 -190 20 -251 l 20 -190 q 20 -119 20 -160 q 20 -33 20 -79 q 20 64 20 13 q 21 165 21 114 q 22 265 21 216 q 23 358 22 314 l 23 358 q 29 508 25 442 q 43 619 34 574 q 70 688 53 665 q 113 712 87 712 l 113 712 q 147 700 133 712 q 170 670 162 689 q 183 625 179 650 q 187 570 187 599 l 187 570 q 177 455 187 511 q 149 347 167 399 q 108 245 131 295 q 57 147 84 195 l 57 147 q 57 104 57 127 q 57 57 57 81 q 57 13 57 34 q 57 -24 57 -8 z m 58 222 l 58 222 q 95 302 78 260 q 124 388 112 343 q 143 479 136 432 q 150 572 150 525 l 150 572 q 148 614 150 595 q 141 647 146 633 q 129 668 136 660 q 113 675 122 675 l 113 675 q 96 664 103 675 q 83 632 88 652 q 74 587 78 613 q 68 534 70 562 q 64 479 65 507 q 62 427 63 452 q 61 385 61 403 q 61 357 61 366 l 61 357 q 60 322 60 337 q 59 292 60 307 q 58 261 59 278 q 58 222 58 245 z m 57 -84 l 57 -84 q 56 -141 57 -115 q 56 -190 56 -168 l 56 -190 q 57 -280 56 -235 q 61 -360 57 -324 q 74 -417 65 -395 q 99 -438 83 -438 l 99 -438 q 123 -425 113 -438 q 137 -394 132 -412 q 144 -357 142 -376 q 146 -327 146 -338 l 146 -327 q 140 -264 146 -297 q 123 -199 135 -231 q 95 -138 112 -167 q 57 -84 79 -108 z"},"g":{"ha":304,"x_min":10,"x_max":358,"o":"m 195 -48 l 195 -48 q 323 151 287 72 l 323 151 q 329 159 325 156 q 339 162 333 162 l 339 162 q 353 156 347 162 q 358 143 358 150 l 358 143 q 356 136 358 140 l 356 136 q 295 27 335 87 q 195 -108 256 -33 l 195 -108 q 196 -170 195 -139 q 196 -237 196 -201 l 196 -237 q 195 -310 196 -274 q 188 -378 193 -346 q 177 -438 184 -411 q 157 -486 169 -466 q 128 -518 145 -506 q 88 -529 111 -529 l 88 -529 q 38 -504 56 -529 q 21 -434 21 -479 l 21 -434 q 25 -381 21 -409 q 39 -322 30 -352 q 60 -260 47 -292 q 87 -200 72 -229 q 120 -144 103 -171 q 158 -95 138 -117 l 158 -95 q 159 -27 159 -61 q 160 35 159 6 l 160 35 q 125 5 146 16 q 85 -5 105 -5 l 85 -5 q 54 1 68 -5 q 30 20 40 8 q 15 48 21 32 q 10 83 10 64 l 10 83 q 23 150 10 121 q 56 199 36 179 q 100 228 76 218 q 146 238 124 238 l 146 238 q 174 234 162 238 q 196 225 187 230 q 210 216 205 220 q 215 211 215 211 l 215 211 q 221 198 221 205 l 221 198 q 215 185 221 190 q 203 179 210 179 l 203 179 q 189 185 196 179 l 189 185 q 184 189 188 186 q 176 194 181 191 q 164 199 171 197 q 147 201 157 201 l 147 201 q 115 195 132 201 q 82 174 97 188 q 57 137 67 160 q 46 84 46 115 l 46 84 q 57 46 46 61 q 88 32 67 32 l 88 32 q 110 38 99 32 q 132 56 122 43 q 151 86 143 68 q 163 130 159 105 l 163 130 q 169 142 164 137 q 182 146 174 146 l 182 146 q 195 141 190 146 q 199 127 199 135 l 199 127 q 199 113 199 127 q 198 74 198 98 q 197 19 197 50 q 195 -48 196 -13 z m 158 -155 l 158 -155 q 117 -224 135 -187 q 85 -299 98 -261 q 65 -373 72 -337 q 58 -437 58 -409 l 58 -437 q 61 -466 58 -456 q 69 -483 64 -477 q 79 -491 73 -489 q 89 -493 84 -493 l 89 -493 q 116 -480 104 -493 q 135 -448 127 -468 q 147 -401 143 -428 q 155 -347 152 -375 q 158 -291 157 -319 q 159 -240 159 -263 l 159 -240 q 159 -198 159 -219 q 158 -155 159 -177 z"},"h":{"ha":375,"x_min":20,"x_max":429,"o":"m 57 64 l 57 42 q 75 77 65 58 q 97 117 85 97 q 122 157 109 137 q 149 195 135 177 l 149 195 q 178 219 164 212 q 205 227 192 227 l 205 227 q 227 222 218 227 q 243 208 237 217 q 252 188 249 199 q 255 162 255 176 l 255 162 q 253 132 255 151 q 251 93 251 113 l 251 93 q 252 70 251 81 q 257 49 253 58 q 266 34 260 40 q 283 29 272 29 l 283 29 q 306 35 294 29 q 329 53 318 42 q 351 77 340 64 q 369 104 361 91 q 384 130 377 118 q 394 151 390 143 l 394 151 q 411 162 399 162 l 411 162 q 424 156 419 162 q 429 144 429 150 l 429 144 q 428 136 429 140 l 428 136 q 420 120 426 132 q 405 92 415 108 q 383 58 396 76 q 355 26 370 41 q 322 1 339 11 q 284 -8 304 -8 l 284 -8 q 248 1 262 -8 q 227 25 234 11 q 217 58 219 40 q 214 93 214 76 l 214 93 q 215 112 214 102 q 216 132 215 122 q 218 150 217 142 q 219 165 219 159 l 219 165 q 215 185 219 180 q 205 190 210 190 l 205 190 q 187 181 197 190 q 166 158 177 172 q 144 125 155 143 q 123 88 133 106 q 104 54 113 70 q 91 27 96 38 l 91 27 q 70 -1 81 6 q 51 -8 60 -8 l 51 -8 q 28 4 36 -8 q 20 33 20 16 l 20 33 l 20 64 q 20 240 20 156 q 23 396 21 324 q 30 526 25 468 q 45 626 35 584 q 72 689 56 667 q 111 712 87 712 l 111 712 q 146 701 132 712 q 169 670 160 689 q 182 625 178 651 q 186 571 186 600 l 186 571 q 175 458 186 514 q 147 350 165 403 q 106 247 129 297 q 57 150 83 197 l 57 150 q 57 129 57 141 q 57 104 57 117 q 57 82 57 92 q 57 64 57 71 l 57 64 z m 57 222 l 57 222 q 94 309 78 267 q 123 395 111 352 q 142 481 135 437 q 149 572 149 524 l 149 572 q 148 597 149 580 q 144 631 147 614 q 133 662 140 649 q 111 675 125 675 l 111 675 q 93 661 101 675 q 79 622 85 646 q 69 564 73 597 q 63 495 65 532 q 59 420 61 458 q 58 345 58 381 q 57 277 57 309 q 57 222 57 245 z"},"i":{"ha":210,"x_min":9,"x_max":264,"o":"m 98 383 l 98 383 q 85 352 98 365 q 54 339 72 339 l 54 339 q 22 352 35 339 q 9 383 9 365 l 9 383 q 13 401 9 393 q 22 415 16 409 q 36 424 28 421 q 54 428 44 428 l 54 428 q 71 424 63 428 q 85 415 79 421 q 95 401 91 409 q 98 383 98 393 z m 19 97 l 19 97 q 28 237 19 167 l 28 237 q 34 249 29 244 q 47 254 39 254 l 47 254 q 60 249 55 254 q 64 236 64 243 l 64 236 q 63 218 64 233 q 60 183 62 204 q 57 140 59 163 q 56 99 56 118 l 56 99 q 61 57 56 73 q 74 32 66 41 q 92 21 83 23 q 109 18 101 18 l 109 18 q 137 27 123 18 q 167 55 152 37 q 198 97 183 72 q 229 152 214 122 l 229 152 q 236 159 231 157 q 246 162 240 162 l 246 162 q 259 156 253 162 q 264 144 264 150 l 264 144 q 262 135 264 139 l 262 135 q 247 108 256 124 q 227 75 238 92 q 202 41 216 58 q 174 10 189 24 q 142 -11 159 -3 q 108 -20 125 -20 l 108 -20 q 70 -10 86 -20 q 42 15 53 -1 q 25 52 30 30 q 19 97 19 73 z m 71 383 l 71 383 q 66 395 71 390 q 54 400 61 400 l 54 400 q 42 395 47 400 q 37 383 37 390 l 37 383 q 42 372 37 376 q 54 367 47 367 l 54 367 q 66 372 61 367 q 71 383 71 376 z"},"j":{"ha":166,"x_min":-129,"x_max":220,"o":"m 103 383 l 103 383 q 90 352 103 365 q 58 339 77 339 l 58 339 q 27 352 40 339 q 14 383 14 365 l 14 383 q 17 401 14 393 q 27 415 21 409 q 41 424 33 421 q 58 428 49 428 l 58 428 q 75 424 67 428 q 90 415 83 421 q 99 401 96 409 q 103 383 103 393 z m 56 -17 l 56 -17 q 93 24 74 2 q 129 68 112 46 q 162 111 147 89 q 185 151 176 132 l 185 151 q 201 162 189 162 l 201 162 q 215 156 209 162 q 220 144 220 150 l 220 144 q 218 136 220 140 l 218 136 q 188 83 207 111 q 145 29 168 56 q 99 -24 123 2 q 56 -71 75 -49 l 56 -71 q 57 -148 56 -110 q 58 -219 58 -186 l 58 -219 q 31 -418 58 -354 q -47 -483 5 -483 l -47 -483 q -81 -476 -65 -483 q -106 -453 -96 -468 q -123 -417 -117 -438 q -129 -368 -129 -396 l -129 -368 q -121 -302 -129 -338 q -95 -226 -113 -266 q -49 -143 -78 -186 q 19 -57 -21 -101 l 19 -57 q 20 27 19 -15 q 21 107 20 69 q 25 179 22 146 q 30 238 27 212 l 30 238 q 36 250 31 246 q 48 254 41 254 l 48 254 q 61 249 56 254 q 66 236 66 244 l 66 236 q 65 217 66 233 q 61 169 63 201 q 57 92 59 138 q 56 -17 56 46 z m 75 383 l 75 383 q 70 395 75 390 q 58 400 65 400 l 58 400 q 46 395 51 400 q 41 383 41 390 l 41 383 q 46 372 41 376 q 58 367 51 367 l 58 367 q 70 372 65 367 q 75 383 75 376 z m 21 -216 l 21 -216 q 21 -167 21 -191 q 20 -112 20 -142 l 20 -112 q -32 -185 -11 -149 q -67 -253 -53 -220 q -87 -315 -81 -286 q -93 -368 -93 -344 l -93 -368 q -91 -396 -93 -382 q -84 -421 -89 -410 q -70 -440 -79 -433 q -47 -447 -61 -447 l -47 -447 q -35 -444 -42 -447 q -20 -434 -27 -442 q -5 -411 -12 -426 q 8 -370 2 -396 q 18 -307 14 -344 q 21 -216 21 -269 z"},"k":{"ha":349,"x_min":20,"x_max":403,"o":"m 142 60 l 142 60 q 169 31 150 42 q 212 20 188 20 l 212 20 q 236 22 219 20 q 274 36 252 24 q 320 76 296 49 q 368 151 345 103 l 368 151 q 375 159 370 157 q 384 162 379 162 l 384 162 q 398 156 393 162 q 403 144 403 150 l 403 144 q 401 136 403 141 l 401 136 q 363 72 384 100 q 317 24 342 44 q 266 -6 293 4 q 212 -17 240 -17 l 212 -17 q 171 -10 190 -17 q 137 9 151 -3 q 115 34 124 20 q 107 64 107 49 l 107 64 q 108 69 107 66 q 111 77 108 73 q 117 85 113 81 q 128 91 121 88 l 128 91 q 165 105 148 97 q 194 125 182 114 q 213 148 207 135 q 220 176 220 161 l 220 176 q 211 198 220 189 q 190 206 203 206 l 190 206 q 164 197 177 206 q 139 173 151 188 q 117 139 127 158 q 97 99 106 120 q 81 57 88 78 q 70 19 74 36 l 70 19 q 67 7 68 13 q 62 -5 65 0 q 53 -14 58 -11 q 41 -18 48 -18 l 41 -18 q 26 -12 33 -18 q 20 9 20 -6 l 20 9 q 20 31 20 12 q 21 82 20 51 q 22 155 21 114 q 23 241 22 195 q 24 335 23 287 q 26 429 25 383 q 27 516 26 475 q 28 590 28 558 q 29 642 29 622 q 29 666 29 662 l 29 666 q 35 679 29 674 q 48 684 41 684 l 48 684 q 61 679 56 684 q 66 666 66 674 l 66 666 q 66 646 66 665 q 65 597 66 628 q 64 525 65 566 q 63 438 63 484 q 61 343 62 392 q 60 248 61 294 q 59 160 59 202 q 58 85 58 118 l 58 85 q 78 138 65 110 q 106 189 90 166 q 144 228 123 212 q 190 243 165 243 l 190 243 q 216 238 204 243 q 238 223 229 232 q 252 202 247 214 q 257 176 257 190 l 257 176 q 247 135 257 154 q 221 103 237 117 q 184 78 205 88 q 142 60 164 67 z"},"l":{"ha":245,"x_min":15,"x_max":298,"o":"m 296 135 l 296 135 q 283 109 291 124 q 265 77 275 93 q 242 44 254 60 q 214 14 229 27 q 182 -7 199 1 q 146 -15 166 -15 l 146 -15 q 96 3 117 -15 q 61 51 75 21 q 37 117 46 80 q 23 194 28 155 q 16 269 18 232 q 15 334 15 306 l 15 334 q 17 419 15 375 q 26 505 20 463 q 41 584 32 547 q 62 650 50 622 q 91 695 75 679 q 127 712 107 712 l 127 712 q 156 704 144 712 q 178 680 169 697 q 192 635 187 663 q 197 568 197 608 l 197 568 q 187 468 197 520 q 159 363 176 416 q 117 258 141 310 q 66 155 93 205 l 66 155 q 99 58 78 93 q 148 22 119 22 l 148 22 q 186 38 167 22 q 219 74 204 53 q 245 117 234 95 q 263 152 257 139 l 263 152 q 270 159 266 157 q 280 162 274 162 l 280 162 q 293 156 288 162 q 298 143 298 150 l 298 143 q 296 135 298 140 z m 52 332 l 52 332 q 53 271 52 300 q 57 216 55 243 l 57 216 q 96 301 78 256 q 129 391 115 345 q 152 482 143 437 q 160 568 160 527 l 160 568 q 151 650 160 625 q 126 675 142 675 l 126 675 q 106 661 116 675 q 88 623 97 647 q 73 565 80 598 q 62 494 66 532 q 54 414 57 456 q 52 332 52 373 z"},"m":{"ha":639,"x_min":17,"x_max":693,"o":"m 131 43 l 131 43 q 150 80 139 58 q 174 124 162 102 q 198 165 187 146 q 219 195 210 185 l 219 195 q 248 219 233 212 q 276 227 263 227 l 276 227 q 298 221 289 227 q 313 207 307 216 q 321 186 318 198 q 324 160 324 174 l 324 160 q 323 140 324 152 q 322 112 323 127 q 321 82 321 98 q 319 53 320 66 l 319 53 q 336 85 327 67 q 355 121 345 103 q 373 154 364 138 q 389 179 382 169 l 389 179 q 428 217 410 208 q 461 227 447 227 l 461 227 q 488 221 478 227 q 505 205 499 215 q 514 184 511 196 q 516 162 516 172 l 516 162 q 514 127 516 145 q 511 84 511 109 l 511 84 q 512 63 511 74 q 516 45 513 53 q 526 33 520 38 q 545 28 533 28 l 545 28 q 570 34 558 28 q 593 52 582 41 q 615 76 604 63 q 633 104 625 90 q 647 130 641 117 q 658 151 654 142 l 658 151 q 665 159 660 156 q 674 162 669 162 l 674 162 q 688 156 683 162 q 693 143 693 150 l 693 143 q 691 136 693 140 l 691 136 q 684 120 689 132 q 668 92 678 107 q 645 58 658 76 q 617 26 632 41 q 583 1 601 11 q 545 -8 565 -8 l 545 -8 q 510 -1 523 -8 q 489 20 497 7 q 478 49 480 32 q 475 83 475 65 l 475 83 q 477 128 475 107 q 479 159 479 148 l 479 159 q 477 178 479 171 q 472 187 475 184 q 466 190 469 189 q 461 190 463 190 l 461 190 q 437 177 450 190 q 410 143 424 164 q 382 94 396 121 q 353 38 368 66 l 353 38 q 339 12 345 22 q 328 -4 333 2 q 318 -12 323 -10 q 308 -15 313 -15 l 308 -15 q 288 -6 295 -15 q 282 17 282 3 l 282 17 q 282 37 282 24 q 283 63 283 49 q 285 94 284 78 q 286 124 286 109 q 287 149 287 138 q 288 167 288 161 l 288 167 q 283 185 288 179 q 273 190 279 190 l 273 190 q 261 187 268 190 q 246 171 254 183 l 246 171 q 228 146 239 163 q 206 108 218 129 q 183 66 194 88 q 163 28 171 45 l 163 28 q 143 0 153 7 q 123 -8 132 -8 l 123 -8 q 102 1 108 -8 q 95 23 95 9 l 95 23 q 95 41 95 25 q 97 80 96 57 q 99 130 98 104 q 102 179 101 156 l 102 179 q 101 202 102 191 q 97 214 99 212 l 97 214 q 81 196 93 213 q 52 136 70 179 l 52 136 q 45 128 50 131 q 35 125 40 125 l 35 125 q 21 131 26 125 q 17 144 17 136 l 17 144 q 18 151 17 147 l 18 151 q 60 228 40 203 q 99 252 80 252 l 99 252 q 118 247 110 252 q 130 234 125 242 q 136 216 134 226 q 138 196 138 206 l 138 196 q 136 116 138 152 q 131 43 134 80 z"},"n":{"ha":445,"x_min":17,"x_max":499,"o":"m 127 44 l 127 44 q 145 79 135 60 q 167 118 155 99 q 192 158 179 138 q 219 195 205 177 l 219 195 q 247 219 233 212 q 274 227 262 227 l 274 227 q 312 208 300 227 q 324 163 324 190 l 324 163 q 323 147 324 156 q 322 128 323 138 q 321 107 321 118 q 320 87 320 97 l 320 87 q 321 65 320 76 q 326 46 322 54 q 335 33 329 38 q 352 29 342 29 l 352 29 q 388 43 371 29 q 421 77 406 58 q 447 118 436 97 q 463 151 458 138 l 463 151 q 470 159 465 156 q 480 162 475 162 l 480 162 q 493 156 488 162 q 499 143 499 150 l 499 143 q 497 136 499 140 l 497 136 q 489 120 495 132 q 474 92 483 108 q 452 58 464 76 q 424 26 439 41 q 390 1 408 11 q 353 -8 373 -8 l 353 -8 q 317 0 331 -8 q 296 23 304 9 q 285 53 288 37 q 283 87 283 70 l 283 87 q 283 104 283 95 q 285 124 284 113 q 287 144 287 134 q 288 164 288 154 l 288 164 q 283 185 288 179 q 274 190 278 190 l 274 190 q 257 181 267 190 q 236 158 247 172 q 213 125 225 143 q 192 88 202 106 q 173 54 182 70 q 160 27 165 38 l 160 27 q 140 -1 150 6 q 120 -8 130 -8 l 120 -8 q 97 1 106 -8 q 89 25 89 9 l 89 25 q 90 38 89 28 q 92 62 91 48 q 95 92 94 76 q 98 124 97 108 q 101 154 100 140 q 102 177 102 167 l 102 177 q 101 200 102 189 q 97 214 100 211 l 97 214 q 81 196 92 212 q 52 136 70 179 l 52 136 q 45 128 50 131 q 35 125 40 125 l 35 125 q 21 131 26 125 q 17 144 17 136 l 17 144 q 18 151 17 147 l 18 151 q 59 228 40 203 q 98 252 79 252 l 98 252 q 117 247 109 252 q 129 232 125 241 q 136 211 134 223 q 138 188 138 200 l 138 188 q 137 161 138 180 q 134 121 136 143 q 130 79 132 100 q 127 44 128 58 z"},"o":{"ha":316,"x_min":10,"x_max":370,"o":"m 244 54 l 244 54 q 222 56 231 54 l 222 56 q 205 29 215 41 q 181 7 194 16 q 151 -8 167 -2 q 115 -13 134 -13 l 115 -13 q 73 -5 92 -13 q 40 17 54 3 q 18 52 25 32 q 10 97 10 72 l 10 97 q 21 151 10 128 q 47 190 32 174 q 76 213 62 205 q 98 220 91 220 l 98 220 q 111 216 106 220 q 115 204 115 211 l 115 204 q 110 192 115 196 q 97 184 104 188 l 97 184 q 80 173 89 180 q 64 155 71 166 q 51 129 56 144 q 46 97 46 115 l 46 97 q 51 67 46 81 q 65 43 56 53 q 87 27 75 33 q 116 21 100 21 l 116 21 q 162 34 144 21 q 190 67 180 47 l 190 67 q 143 110 161 83 q 124 173 124 138 l 124 173 q 137 218 124 201 q 173 236 151 236 l 173 236 q 198 229 186 236 q 219 209 209 223 q 233 174 228 196 q 238 123 238 153 l 238 123 q 234 90 238 107 l 234 90 q 240 90 237 90 q 247 90 243 90 l 247 90 q 276 94 263 90 q 300 105 290 98 q 320 125 311 113 q 336 154 328 138 l 336 154 q 342 159 337 157 q 352 162 347 162 l 352 162 q 364 157 358 162 q 370 144 370 152 l 370 144 q 368 135 370 140 q 364 126 366 130 l 364 126 q 344 98 355 112 q 319 75 333 85 q 285 59 304 65 q 244 54 267 53 z m 160 177 l 160 177 q 163 157 160 167 q 170 137 165 147 q 183 118 175 127 q 201 103 190 109 l 201 103 q 202 123 202 113 l 202 123 q 200 149 202 136 q 195 175 198 163 q 186 193 191 186 q 173 200 180 200 l 173 200 q 165 196 170 200 q 160 177 160 191 z"},"p":{"ha":353,"x_min":-88,"x_max":407,"o":"m 269 136 l 269 136 q 253 60 269 91 q 213 11 237 28 l 213 11 l 215 11 q 268 24 244 11 q 311 57 292 37 q 345 103 330 78 q 372 151 360 127 l 372 151 q 379 159 374 156 q 389 162 383 162 l 389 162 q 402 156 397 162 q 407 144 407 150 l 407 144 q 405 136 407 140 l 405 136 q 375 79 393 108 q 334 28 357 51 q 281 -10 311 5 q 216 -24 252 -24 l 216 -24 q 166 -16 190 -24 q 123 9 142 -8 l 123 9 q 111 21 116 15 q 104 32 106 27 l 104 32 q 103 34 103 33 l 103 34 q 100 43 100 39 l 100 43 q 104 55 100 50 l 104 55 q 105 56 104 56 q 106 57 105 57 l 106 57 q 117 62 111 62 l 117 62 l 118 62 q 122 62 121 62 l 122 62 q 122 61 122 62 q 123 61 123 61 l 123 61 q 126 60 125 61 l 126 60 q 127 60 127 60 l 127 60 q 135 52 132 57 l 135 52 q 143 42 138 46 l 143 42 q 152 34 146 38 q 164 31 157 31 l 164 31 q 188 39 176 31 q 210 60 201 46 q 226 93 220 73 q 232 136 232 112 l 232 136 q 229 166 232 154 q 219 187 225 179 q 208 198 214 194 q 195 202 201 202 l 195 202 q 169 188 182 202 q 142 153 155 174 q 116 107 129 132 q 90 58 103 82 l 90 58 q 87 -93 89 -21 q 81 -227 85 -165 q 70 -338 77 -288 q 50 -423 63 -388 q 19 -478 37 -458 q -27 -497 0 -497 l -27 -497 q -46 -493 -35 -497 q -66 -479 -57 -490 q -82 -449 -75 -469 q -88 -397 -88 -430 l -88 -397 q -78 -301 -88 -355 q -49 -185 -67 -246 q -4 -59 -30 -124 q 53 66 22 5 l 53 66 q 53 100 53 83 q 54 132 54 117 l 54 132 q 39 125 47 125 l 39 125 q 25 131 30 125 q 21 144 21 137 l 21 144 q 22 151 21 147 l 22 151 q 40 202 34 178 q 50 244 46 226 q 53 273 53 263 q 54 285 54 284 l 54 285 q 59 297 54 292 q 72 303 64 303 l 72 303 q 85 298 80 303 q 90 285 90 292 l 90 285 l 90 135 q 113 172 102 154 q 136 206 124 191 q 163 229 149 220 q 195 238 178 238 l 195 238 q 226 230 212 238 q 249 209 239 223 q 264 177 259 195 q 269 136 269 158 z m 52 -21 l 52 -21 q 9 -128 28 -74 q -24 -233 -10 -183 q -44 -327 -37 -283 q -52 -404 -52 -371 l -52 -404 q -51 -422 -52 -413 q -47 -440 -50 -432 q -39 -454 -44 -449 q -24 -460 -33 -460 l -24 -460 q 3 -440 -8 -460 q 23 -385 15 -419 q 37 -306 31 -351 q 45 -212 42 -261 q 50 -114 48 -164 q 52 -21 51 -64 z"},"q":{"ha":304,"x_min":10,"x_max":358,"o":"m 195 -50 l 195 -50 q 235 4 216 -23 q 270 57 254 31 q 300 106 287 83 q 323 151 313 130 l 323 151 q 329 159 325 156 q 339 162 333 162 l 339 162 q 353 156 347 162 q 358 143 358 150 l 358 143 q 356 136 358 140 l 356 136 q 330 85 346 112 q 295 27 314 57 q 254 -33 276 -2 q 208 -94 231 -64 l 208 -94 q 247 -154 229 -118 q 278 -232 265 -190 q 299 -316 292 -273 q 307 -397 307 -359 l 307 -397 q 298 -465 307 -439 q 278 -504 290 -490 q 254 -522 267 -518 q 232 -526 241 -526 l 232 -526 q 190 -509 206 -526 q 167 -460 175 -492 q 156 -379 159 -427 q 154 -269 154 -332 l 154 -269 q 155 -186 154 -228 q 157 -104 156 -144 q 161 -26 159 -63 q 165 43 163 12 l 165 43 q 130 7 149 20 q 87 -5 111 -5 l 87 -5 q 55 1 70 -5 q 31 20 41 8 q 15 48 21 32 q 10 83 10 64 l 10 83 q 23 150 10 121 q 56 199 36 179 q 100 228 76 218 q 146 238 124 238 l 146 238 q 174 234 162 238 q 196 225 187 229 q 210 216 205 220 q 215 211 215 211 l 215 211 q 221 198 221 206 l 221 198 q 216 185 221 190 q 202 179 210 179 l 202 179 q 195 181 198 179 q 189 185 192 182 l 189 185 q 175 195 185 188 q 147 201 166 201 l 147 201 q 115 195 132 201 q 82 174 97 188 q 57 137 67 160 q 46 84 46 115 l 46 84 q 56 47 46 62 q 88 32 66 32 l 88 32 q 112 39 99 32 q 137 60 125 46 q 158 95 149 74 q 172 144 168 116 l 172 144 q 178 156 173 151 q 190 160 184 160 l 190 160 q 203 155 198 160 q 208 142 208 149 l 208 142 q 207 125 208 141 q 204 83 206 109 q 200 22 202 57 q 195 -50 197 -12 z m 192 -133 l 192 -133 q 191 -162 191 -148 q 191 -190 191 -176 l 191 -190 q 191 -307 191 -253 q 196 -402 192 -362 q 208 -466 199 -442 q 232 -489 216 -489 l 232 -489 q 252 -478 245 -489 q 264 -452 260 -467 q 269 -421 268 -437 q 270 -395 270 -405 l 270 -395 q 264 -326 270 -362 q 247 -253 258 -289 q 222 -186 237 -218 q 192 -133 208 -155 z"},"r":{"ha":303,"x_min":-18,"x_max":357,"o":"m 70 201 l 70 201 q 65 176 68 188 q 59 156 62 165 q 55 142 57 147 q 52 136 53 137 l 52 136 q 35 125 47 125 l 35 125 q 22 130 28 125 q 17 143 17 135 l 17 143 q 18 147 17 146 q 21 153 19 149 q 25 168 22 158 q 33 200 28 178 l 33 200 q 16 200 24 200 q -1 204 7 201 q -13 213 -8 207 q -18 230 -18 219 l -18 230 q -13 253 -18 239 q -1 281 -9 267 q 17 304 7 294 q 36 314 26 314 l 36 314 q 54 306 47 314 q 65 286 62 298 q 71 261 69 274 q 73 238 73 248 l 73 238 q 89 238 81 238 q 104 238 97 238 l 104 238 q 147 226 132 238 q 162 186 162 214 l 162 186 q 160 163 162 175 q 157 137 159 150 q 153 112 155 125 q 152 87 152 99 l 152 87 q 157 58 152 69 q 169 40 162 46 q 185 30 176 33 q 200 27 193 27 l 200 27 q 239 41 221 27 q 273 74 258 55 q 302 115 289 93 q 322 152 314 136 l 322 152 q 329 159 325 157 q 338 162 333 162 l 338 162 q 352 156 347 162 q 357 144 357 150 l 357 144 q 355 135 357 139 l 355 135 q 329 90 344 115 q 295 42 314 64 q 252 5 276 21 q 200 -10 229 -10 l 200 -10 q 167 -3 183 -10 q 140 16 151 3 q 122 47 128 28 q 115 88 115 65 l 115 88 q 120 136 115 112 q 125 183 125 161 l 125 183 q 120 197 125 192 q 102 201 116 201 l 102 201 q 87 201 95 201 q 70 201 79 201 z m 16 237 l 37 237 q 37 246 37 240 q 36 257 37 251 q 34 266 35 262 q 31 270 33 270 l 31 270 q 28 266 30 270 q 23 258 25 263 q 19 247 21 252 q 16 237 17 241 l 16 237 z"},"s":{"ha":254,"x_min":7,"x_max":308,"o":"m 73 181 l 73 181 q 66 163 70 173 q 56 143 62 153 l 56 143 q 47 130 52 134 q 35 125 42 125 l 35 125 q 22 130 27 125 q 17 142 17 135 l 17 142 q 18 146 17 145 q 20 152 18 148 l 20 152 q 39 195 33 176 q 49 233 45 213 l 49 233 q 44 252 45 244 q 42 268 42 260 l 42 268 q 49 294 42 284 q 68 304 56 304 l 68 304 q 86 294 80 304 q 93 271 93 285 l 93 271 q 91 255 93 263 q 87 235 90 247 l 87 235 q 110 186 99 208 q 130 147 121 165 q 144 113 139 129 q 150 82 150 98 l 150 82 q 142 43 150 62 q 114 12 133 24 l 114 12 q 119 11 117 11 q 124 11 122 11 l 124 11 q 175 24 152 11 q 218 57 199 37 q 251 102 236 77 q 276 151 266 126 l 276 151 q 290 162 281 162 l 290 162 q 303 156 298 162 q 308 144 308 150 l 308 144 q 306 136 308 140 l 306 136 q 292 106 301 123 q 272 72 284 89 q 244 37 260 54 q 209 6 229 20 q 167 -15 190 -7 q 117 -23 144 -23 l 117 -23 q 56 -12 84 -23 q 10 26 28 0 l 10 26 q 7 35 7 30 l 7 35 q 13 48 7 42 q 26 54 19 54 l 26 54 q 39 48 34 54 l 39 48 q 42 45 40 47 q 50 40 45 43 q 59 36 54 38 q 71 34 65 34 l 71 34 q 91 39 83 34 q 104 51 99 43 q 111 66 108 58 q 113 80 113 74 l 113 80 q 109 104 113 92 q 99 128 105 116 q 86 154 93 141 q 73 181 79 167 z"},"t":{"ha":233,"x_min":-177,"x_max":414,"o":"m 414 489 l 414 489 q 409 476 414 481 q 396 472 403 472 l 396 472 l 148 472 l 148 466 q 144 403 148 437 q 132 336 139 369 q 115 271 124 302 q 95 212 105 239 q 75 165 85 185 q 58 136 65 146 l 58 136 q 73 94 64 113 q 93 60 82 75 q 116 38 104 46 q 144 29 129 29 l 144 29 q 177 44 161 29 q 209 78 194 58 q 234 118 223 98 q 250 150 245 138 l 250 150 q 267 162 255 162 l 267 162 q 281 156 275 162 q 286 144 286 150 l 286 144 q 284 137 286 140 l 284 137 q 277 121 283 133 q 262 93 271 109 q 241 59 253 77 q 215 26 229 41 q 183 2 200 12 q 146 -8 166 -8 l 146 -8 q 86 14 113 -8 q 40 76 59 36 q 12 169 21 115 q 2 288 2 224 l 2 288 q 2 326 2 304 q 4 372 3 348 q 9 422 6 396 q 17 472 12 447 l 17 472 l -159 472 q -172 476 -167 472 q -177 489 -177 481 l -177 489 q -172 501 -177 497 q -159 506 -167 506 l -159 506 l 25 506 q 36 538 30 523 q 52 563 43 553 q 71 580 60 574 q 94 586 81 586 l 94 586 q 115 580 106 586 q 130 563 124 574 q 140 538 137 553 q 146 506 144 523 l 146 506 l 396 506 q 409 501 403 506 q 414 489 414 497 z m 46 185 l 46 185 q 73 254 61 217 q 94 330 85 292 q 107 404 102 368 q 111 472 111 441 l 111 472 l 54 472 q 43 397 47 441 q 39 288 39 352 l 39 288 q 41 228 39 252 q 46 185 42 204 z m 92 550 l 92 550 q 79 540 87 550 q 63 506 71 531 l 63 506 l 109 506 q 102 538 107 526 q 92 550 98 550 z m 54 149 l 54 149 l 54 149 z"},"u":{"ha":350,"x_min":15,"x_max":404,"o":"m 181 55 l 181 55 q 141 11 164 27 q 95 -5 118 -5 l 95 -5 q 62 1 77 -5 q 37 21 47 8 q 20 51 26 33 q 15 90 15 68 l 15 90 q 21 151 15 125 q 36 195 28 177 q 50 222 43 213 q 57 231 57 231 l 57 231 q 63 236 60 234 q 71 237 67 237 l 71 237 q 84 232 79 237 q 89 219 89 226 l 89 219 q 88 213 89 216 q 85 207 86 210 l 85 207 q 77 194 83 203 q 66 170 72 185 q 56 135 60 155 q 51 90 51 116 l 51 90 q 63 47 51 62 q 95 32 74 32 l 95 32 q 115 37 104 32 q 138 55 127 43 q 157 84 149 66 q 168 127 166 103 l 168 127 l 175 211 q 182 223 176 218 q 194 228 187 228 l 194 228 q 208 222 203 228 q 212 208 212 216 l 212 208 l 206 127 q 207 100 205 117 q 214 67 208 83 q 230 40 219 51 q 258 28 241 28 l 258 28 q 283 35 271 28 q 307 52 295 42 q 327 76 318 63 q 345 104 337 90 q 359 130 353 117 q 369 151 365 142 l 369 151 q 375 159 371 156 q 385 162 380 162 l 385 162 q 399 156 394 162 q 404 144 404 150 l 404 144 q 402 136 404 140 l 402 136 q 395 120 400 132 q 380 92 389 107 q 358 58 371 76 q 330 26 346 41 q 296 1 314 11 q 257 -8 278 -8 l 257 -8 q 209 8 228 -8 q 181 55 190 24 z"},"v":{"ha":331,"x_min":19,"x_max":385,"o":"m 216 154 l 216 154 q 195 90 209 120 q 166 39 182 61 q 135 4 151 17 q 108 -10 120 -9 l 108 -10 q 80 3 96 -10 q 51 38 65 16 q 28 92 37 61 q 19 160 19 124 l 19 160 q 24 209 19 192 q 31 228 30 226 l 31 228 q 38 235 34 232 q 47 237 42 237 l 47 237 q 61 232 56 237 q 65 219 65 226 l 65 219 q 63 211 65 214 l 63 211 q 59 198 63 210 q 55 161 55 186 l 55 161 q 61 108 55 132 q 75 66 67 83 q 93 38 83 48 q 107 28 102 28 l 107 28 q 119 36 111 28 q 135 56 126 43 q 153 86 144 68 q 169 124 162 104 q 181 168 177 145 q 186 215 186 191 l 186 215 q 186 225 186 220 q 186 234 186 229 l 186 234 q 191 248 186 243 q 204 254 196 254 l 204 254 q 216 250 210 254 q 222 239 221 246 l 222 239 q 224 231 222 240 q 231 210 226 223 q 242 182 235 197 q 260 154 250 167 q 283 132 270 141 q 313 124 296 124 l 313 124 q 329 127 322 124 q 340 136 336 131 q 347 146 345 141 q 349 150 349 150 l 349 150 q 356 159 351 156 q 366 162 360 162 l 366 162 q 379 156 374 162 q 385 144 385 151 l 385 144 q 383 137 385 140 l 383 137 q 375 121 380 130 q 360 104 369 112 q 340 92 352 97 q 313 86 328 86 l 313 86 q 281 93 296 86 q 255 108 267 99 q 233 130 243 118 q 216 154 223 142 z"},"w":{"ha":463,"x_min":15,"x_max":517,"o":"m 361 136 l 361 136 q 354 85 359 110 q 337 39 349 59 q 307 5 326 18 q 261 -8 289 -8 l 261 -8 q 231 -3 244 -8 q 209 11 218 2 q 193 31 199 20 q 182 54 187 42 l 182 54 q 142 10 165 25 q 96 -5 119 -5 l 96 -5 q 62 1 77 -5 q 37 21 47 8 q 21 51 26 33 q 15 90 15 68 l 15 90 q 21 154 15 127 q 36 197 28 180 q 51 223 44 214 q 58 231 58 231 l 58 231 q 64 236 60 234 q 71 237 67 237 l 71 237 q 84 232 79 237 q 89 219 89 226 l 89 219 q 85 207 89 213 l 85 207 q 78 196 83 204 q 66 173 72 188 q 56 139 61 159 q 51 90 51 118 l 51 90 q 63 47 51 62 q 96 32 75 32 l 96 32 q 118 37 106 32 q 141 55 130 43 q 160 84 152 66 q 169 127 167 103 l 169 127 l 176 211 q 182 223 176 218 q 195 228 188 228 l 195 228 q 208 222 203 228 q 213 208 213 216 l 213 208 l 208 127 q 209 83 206 102 q 220 52 212 64 q 238 35 227 41 q 262 29 249 29 l 262 29 q 292 40 279 29 q 311 67 304 50 q 322 108 318 85 q 325 157 325 131 l 325 157 q 321 208 325 188 q 318 236 318 229 l 318 236 q 323 249 318 243 q 336 254 329 254 l 336 254 q 348 250 343 254 q 354 239 353 246 l 354 239 q 357 228 355 237 q 364 206 360 219 q 376 178 369 193 q 393 152 383 164 q 416 132 403 140 q 445 124 429 124 l 445 124 q 461 127 455 124 q 472 136 468 131 q 479 145 477 141 q 481 150 481 149 l 481 150 q 489 159 484 156 q 499 162 493 162 l 499 162 q 512 156 507 162 q 517 143 517 150 l 517 143 q 512 127 517 137 q 498 109 507 118 q 475 93 488 100 q 445 86 461 86 l 445 86 q 419 91 431 86 q 396 102 407 95 q 377 117 386 108 q 361 136 368 126 z"},"x":{"ha":368,"x_min":18,"x_max":421,"o":"m 310 276 l 310 276 q 172 81 234 184 l 172 81 q 210 39 189 56 q 256 22 230 22 l 256 22 q 300 36 279 22 q 337 68 320 49 q 366 110 354 87 q 386 150 379 132 l 386 150 q 403 162 391 162 l 403 162 q 416 156 411 162 q 421 144 421 151 l 421 144 q 420 137 421 141 l 420 137 q 416 127 421 138 q 401 100 411 117 q 377 63 392 83 q 345 26 363 43 q 304 -3 327 8 q 256 -15 282 -15 l 256 -15 q 198 2 224 -15 q 152 46 172 20 l 152 46 q 136 17 144 31 q 120 -13 128 2 l 120 -13 q 104 -23 115 -23 l 104 -23 q 90 -17 95 -23 q 85 -4 85 -11 l 85 -4 q 87 4 85 0 l 87 4 q 107 42 97 23 q 129 80 118 62 l 129 80 q 101 139 112 109 q 82 195 89 169 l 82 195 l 53 136 q 37 125 48 125 l 37 125 q 23 131 28 125 q 18 144 18 137 l 18 144 q 20 151 18 148 l 20 151 l 73 263 q 80 270 76 267 q 90 273 84 273 l 90 273 q 103 268 98 273 q 108 255 107 263 l 108 255 q 112 234 109 249 q 121 200 115 219 q 134 160 126 182 q 152 118 142 139 l 152 118 q 281 300 210 213 l 281 300 q 295 306 286 306 l 295 306 q 309 301 303 306 q 314 288 314 295 l 314 288 q 310 276 314 281 z"},"y":{"ha":307,"x_min":15,"x_max":361,"o":"m 200 -7 l 200 -7 q 235 28 217 10 q 269 65 252 46 q 300 106 286 85 q 326 151 314 127 l 326 151 q 333 159 328 157 q 342 162 337 162 l 342 162 q 356 156 351 162 q 361 143 361 150 l 361 143 q 359 136 361 139 l 359 136 q 325 78 344 104 q 284 28 305 51 q 240 -18 262 4 q 198 -63 218 -41 l 198 -63 q 198 -131 196 -97 q 200 -203 200 -165 l 200 -203 q 198 -265 200 -234 q 192 -325 196 -296 q 180 -378 188 -354 q 161 -422 172 -403 q 133 -450 149 -440 q 97 -461 118 -461 l 97 -461 q 43 -437 62 -461 q 25 -370 25 -413 l 25 -370 q 30 -320 25 -347 q 44 -264 35 -293 q 67 -207 54 -236 q 95 -149 80 -177 q 127 -96 110 -122 q 162 -51 144 -71 l 162 -51 q 164 -2 163 -27 q 167 44 165 23 l 167 44 q 135 8 154 22 q 94 -5 116 -5 l 94 -5 q 36 20 57 -5 q 15 88 15 44 l 15 88 q 21 146 15 120 q 34 191 27 172 q 47 219 41 209 q 53 229 53 229 l 53 229 q 68 237 58 237 l 68 237 q 81 232 76 237 q 86 219 86 226 l 86 219 q 83 209 86 213 l 83 209 q 79 201 84 209 q 68 176 74 192 q 56 138 62 160 q 51 88 51 115 l 51 88 q 61 46 51 62 q 93 31 71 31 l 93 31 q 143 73 121 31 q 181 192 166 114 l 181 192 q 187 203 182 199 q 199 207 192 207 l 199 207 q 212 202 207 207 q 217 188 217 196 l 217 188 q 215 171 217 187 q 211 129 213 155 q 205 68 208 103 q 200 -7 202 33 z m 161 -110 l 161 -110 q 121 -177 139 -142 q 89 -247 103 -212 q 69 -313 76 -282 q 62 -370 62 -345 l 62 -370 q 70 -410 62 -396 q 96 -424 78 -424 l 96 -424 q 125 -408 112 -424 q 146 -363 137 -393 q 159 -292 154 -334 q 163 -199 163 -250 l 163 -199 q 162 -156 163 -178 q 161 -110 162 -135 z"},"z":{"ha":359,"x_min":18,"x_max":413,"o":"m 248 -72 l 248 -72 q 250 -167 250 -112 l 250 -167 q 243 -276 250 -226 q 222 -361 236 -325 q 187 -417 208 -397 q 138 -437 166 -437 l 138 -437 q 112 -431 125 -437 q 91 -413 100 -424 q 77 -385 82 -401 q 72 -349 72 -369 l 72 -349 q 79 -286 72 -319 q 102 -216 86 -252 q 145 -141 118 -180 q 209 -59 171 -102 l 209 -59 q 204 -20 208 -38 q 196 11 201 -2 q 185 32 191 24 q 169 39 178 39 l 169 39 q 162 38 166 39 l 162 38 q 142 18 151 25 q 125 6 133 10 q 113 1 118 2 q 105 0 108 0 l 105 0 q 90 5 97 0 q 82 22 82 10 l 82 22 q 85 34 82 27 q 96 48 88 41 q 115 62 103 56 q 144 72 127 69 l 144 72 q 194 136 176 107 q 212 190 212 165 l 212 190 q 199 226 212 212 q 164 239 185 239 l 164 239 q 105 211 135 239 q 53 136 76 184 l 53 136 q 36 125 47 125 l 36 125 q 22 131 27 125 q 18 144 18 137 l 18 144 q 20 151 18 148 l 20 151 q 86 243 48 210 q 165 276 124 276 l 165 276 q 197 270 181 276 q 224 253 212 264 q 242 226 235 242 q 249 190 249 210 l 249 190 q 244 157 249 173 q 232 126 240 141 q 214 98 224 111 q 193 71 204 84 l 193 71 q 215 55 206 65 q 229 31 223 44 q 237 3 234 18 q 242 -24 240 -11 l 242 -24 q 281 19 261 -4 q 319 64 301 41 q 353 109 338 87 q 377 151 369 131 l 377 151 q 384 159 380 156 q 394 162 389 162 l 394 162 q 407 156 402 162 q 413 144 413 150 l 413 144 q 411 136 413 140 l 411 136 q 381 84 400 112 q 338 28 361 56 q 292 -26 315 0 q 248 -72 268 -52 z m 213 -111 l 213 -111 q 162 -182 182 -149 q 130 -245 142 -215 q 113 -299 118 -274 q 108 -345 108 -324 l 108 -345 q 117 -385 108 -370 q 139 -400 126 -400 l 139 -400 q 170 -383 156 -400 q 193 -335 184 -365 q 208 -263 203 -304 q 214 -173 214 -221 l 214 -173 q 214 -145 214 -161 q 213 -111 213 -129 z"},"$":{"ha":497,"x_min":34,"x_max":473,"o":"m 473 441 l 473 441 q 472 430 473 436 q 469 419 471 424 q 463 411 467 415 q 452 408 459 408 l 452 408 q 439 413 444 408 q 434 426 434 419 l 434 426 q 435 434 434 430 q 436 440 436 437 l 436 440 q 425 469 436 457 l 425 469 q 411 481 420 475 q 386 493 402 488 q 347 503 370 499 q 291 507 324 507 l 291 507 q 214 499 253 507 q 144 478 175 492 q 92 443 112 463 q 71 396 71 422 l 71 396 q 86 364 71 376 q 125 343 102 351 q 178 331 149 335 q 235 324 207 327 l 235 324 q 302 317 270 320 q 358 306 333 313 q 397 284 383 298 q 412 247 412 271 l 412 247 q 405 212 412 229 q 379 182 397 195 q 333 159 362 168 q 263 149 305 150 l 263 149 l 257 14 q 251 2 257 7 q 239 -3 246 -3 l 239 -3 q 225 2 230 -3 q 220 16 220 8 l 220 16 l 226 150 q 177 157 198 152 q 142 167 156 162 q 120 176 127 172 q 111 181 112 180 l 111 181 q 103 196 103 186 l 103 196 q 109 209 103 204 q 122 215 115 215 l 122 215 q 131 212 126 215 l 131 212 q 139 208 131 212 q 163 199 147 204 q 201 190 178 194 q 254 186 224 186 l 254 186 q 305 190 282 186 q 343 202 327 195 q 367 220 358 210 q 375 242 375 230 l 375 242 q 366 262 375 254 q 341 273 358 269 q 298 281 324 278 q 237 287 272 284 l 237 287 q 133 305 172 293 q 71 331 93 316 q 42 362 49 346 q 34 396 34 379 l 34 396 q 52 453 34 428 q 99 497 70 479 q 165 526 128 515 q 242 542 203 537 l 242 542 l 250 675 q 255 687 250 682 q 268 692 261 692 l 268 692 q 281 687 276 692 q 287 673 287 681 l 287 673 l 279 544 l 289 544 q 365 537 332 544 q 423 517 399 530 q 460 484 447 503 q 473 441 473 465 z"},"%":{"ha":580,"x_min":24,"x_max":556,"o":"m 556 184 l 556 184 q 546 132 556 156 q 518 90 536 108 q 478 62 501 72 q 429 52 455 52 l 429 52 q 379 62 402 52 q 339 90 356 72 q 311 132 321 108 q 301 184 301 156 l 301 184 q 311 234 301 210 q 339 276 321 258 q 379 305 356 294 q 429 315 402 315 l 429 315 q 478 305 455 315 q 518 276 501 294 q 546 234 536 258 q 556 184 556 210 z m 279 452 l 279 452 q 269 401 279 424 q 241 359 259 377 q 201 331 224 341 q 152 320 178 320 l 152 320 q 102 331 125 320 q 62 359 79 341 q 34 401 44 377 q 24 452 24 424 l 24 452 q 34 503 24 479 q 62 545 44 527 q 102 573 79 563 q 152 583 125 583 l 152 583 q 201 573 178 583 q 241 545 224 563 q 269 503 259 527 q 279 452 279 479 z m 484 550 l 114 53 q 101 46 109 46 l 101 46 q 89 51 94 46 q 84 63 84 56 l 84 63 q 88 72 84 68 l 88 72 l 458 569 q 464 574 461 573 q 472 576 468 576 l 472 576 q 483 571 479 576 q 487 560 487 566 l 487 560 q 484 550 487 554 l 484 550 z m 523 184 l 523 184 q 516 222 523 204 q 496 254 508 240 q 466 275 483 267 q 429 283 448 283 l 429 283 q 391 275 409 283 q 361 254 374 267 q 341 222 349 240 q 333 184 333 204 l 333 184 q 341 145 333 163 q 361 113 349 126 q 391 92 374 100 q 429 84 409 84 l 429 84 q 466 92 448 84 q 496 113 483 100 q 516 145 508 126 q 523 184 523 163 z m 247 452 l 247 452 q 239 490 247 472 q 219 522 231 509 q 189 543 206 536 q 152 551 171 551 l 152 551 q 115 543 132 551 q 84 522 97 536 q 64 490 72 509 q 57 452 57 472 l 57 452 q 64 413 57 431 q 84 382 72 395 q 115 360 97 368 q 152 353 132 353 l 152 353 q 189 360 171 353 q 219 382 206 368 q 239 413 231 395 q 247 452 247 431 z"},"#":{"ha":339,"x_min":20,"x_max":319,"o":"m 282 503 l 252 401 l 300 402 q 313 397 308 402 q 319 384 319 392 l 319 384 q 314 371 319 376 q 301 365 309 365 l 301 365 q 271 365 285 365 q 242 365 256 365 l 242 365 l 215 273 l 262 273 q 275 268 270 273 q 280 255 280 263 l 280 255 q 275 242 280 248 q 262 237 270 237 l 262 237 l 204 237 l 161 86 q 154 76 159 80 q 143 73 149 73 l 143 73 q 129 78 134 73 q 124 91 124 84 l 124 91 q 124 94 124 92 q 125 96 125 95 l 125 96 l 166 236 l 117 236 l 80 117 q 73 107 78 111 q 62 104 68 104 l 62 104 q 49 109 54 104 q 43 122 43 114 l 43 122 q 44 127 43 124 l 44 127 l 78 236 l 38 236 q 25 241 30 236 q 20 254 20 247 l 20 254 q 25 268 20 262 q 38 273 30 273 l 38 273 l 89 273 l 117 363 q 87 362 98 362 q 74 362 76 362 l 74 362 q 61 367 66 362 q 55 380 55 372 l 55 380 q 60 393 55 388 q 73 398 65 398 l 73 398 l 128 399 l 158 493 q 165 502 160 499 q 175 506 169 506 l 175 506 q 189 500 184 506 q 194 487 194 494 l 194 487 q 193 480 194 484 q 191 476 192 477 l 191 476 l 168 400 l 214 401 l 247 515 q 254 525 249 521 q 265 528 259 528 l 265 528 q 278 523 273 528 q 283 510 283 517 l 283 510 q 283 507 283 509 q 282 503 282 504 l 282 503 z m 177 273 l 203 365 q 179 364 190 364 q 157 364 167 364 l 157 364 l 128 273 q 154 273 141 273 q 177 273 167 273 l 177 273 z"},"+":{"ha":366,"x_min":32,"x_max":334,"o":"m 334 309 l 334 309 q 330 295 334 301 q 317 289 325 290 l 317 289 l 203 283 l 194 174 q 188 162 193 167 q 176 157 183 157 l 176 157 q 163 162 168 157 q 158 175 158 167 l 158 175 q 160 203 158 175 q 166 281 162 231 l 166 281 l 51 275 q 38 280 44 275 q 32 292 32 284 l 32 292 q 36 306 32 300 q 49 312 41 312 l 49 312 l 168 318 q 172 370 170 342 q 176 428 174 397 l 176 428 q 182 440 177 436 q 194 445 188 445 l 194 445 q 208 439 203 445 q 213 426 213 434 l 213 426 l 205 320 l 315 326 q 328 321 323 326 q 334 309 334 316 z"},"=":{"ha":366,"x_min":36,"x_max":330,"o":"m 330 362 l 330 362 q 325 348 330 354 q 312 343 320 343 l 312 343 l 56 337 q 43 342 48 337 q 38 355 38 348 l 38 355 q 42 368 38 363 q 55 374 47 374 l 55 374 l 311 380 q 324 375 318 380 q 330 362 330 369 z m 322 240 l 322 240 q 317 227 322 232 q 304 222 312 222 l 304 222 l 55 218 q 42 223 47 218 q 36 236 36 229 l 36 236 q 41 249 36 243 q 54 255 46 255 l 54 255 l 303 258 q 316 253 311 258 q 322 240 322 248 z"},"<":{"ha":366,"x_min":48,"x_max":318,"o":"m 313 135 l 313 135 q 306 128 311 131 q 297 125 302 125 l 297 125 q 287 129 292 125 l 287 129 q 241 160 261 146 q 204 186 222 174 q 171 209 187 198 q 139 230 156 219 q 102 253 122 241 q 57 279 83 265 l 57 279 q 48 295 48 284 l 48 295 q 58 312 48 306 l 58 312 q 121 350 91 330 q 175 390 150 370 q 220 429 200 411 q 254 462 240 448 q 276 485 269 476 q 285 494 284 494 l 285 494 q 299 501 291 501 l 299 501 q 313 496 307 501 q 318 483 318 490 l 318 483 q 314 472 318 476 l 314 472 q 298 453 313 469 q 256 411 283 436 q 191 356 229 386 q 104 295 153 325 l 104 295 q 145 271 127 282 q 177 251 162 260 q 205 232 192 241 q 234 212 219 223 q 267 189 249 202 q 309 160 285 176 l 309 160 q 317 145 317 155 l 317 145 q 313 135 317 140 z"},">":{"ha":366,"x_min":48,"x_max":318,"o":"m 52 135 l 52 135 q 49 145 49 140 l 49 145 q 57 160 49 155 l 57 160 q 99 189 81 176 q 132 212 117 202 q 160 232 147 223 q 189 251 174 241 q 221 271 204 260 q 261 295 238 282 l 261 295 q 175 356 213 325 q 110 411 137 386 q 68 453 83 436 q 51 472 53 469 l 51 472 q 48 483 48 476 l 48 483 q 53 496 48 490 q 66 501 59 501 l 66 501 q 81 494 75 501 l 81 494 q 89 485 82 494 q 111 462 97 476 q 146 429 125 448 q 191 390 166 411 q 245 350 216 370 q 308 312 275 330 l 308 312 q 318 295 318 306 l 318 295 q 309 279 318 284 l 309 279 q 263 253 283 265 q 227 230 244 241 q 194 209 210 219 q 161 186 179 198 q 124 160 144 174 q 79 129 104 146 l 79 129 q 68 125 74 125 l 68 125 q 59 128 64 125 q 52 135 55 131 z"},"|":{"ha":244,"x_min":92,"x_max":143,"o":"m 142 -66 l 142 -66 q 137 -79 142 -74 q 124 -84 131 -84 l 124 -84 q 111 -79 116 -84 q 105 -66 105 -74 l 105 -66 q 105 -54 105 -65 q 106 -24 105 -43 q 106 20 106 -5 q 106 75 106 45 l 106 75 q 106 135 106 104 q 106 198 106 167 q 105 258 105 229 q 104 312 104 288 l 104 312 q 102 387 104 345 q 100 474 101 430 q 97 562 99 519 q 95 639 96 605 q 93 694 94 673 q 92 715 92 715 l 92 715 q 97 729 92 723 q 110 734 102 734 l 110 734 q 123 730 118 734 q 129 717 129 725 l 129 717 q 130 695 129 716 q 132 640 130 674 q 134 563 133 606 q 137 475 136 520 q 139 388 138 431 q 141 313 141 346 l 141 313 q 142 264 142 291 q 142 210 142 238 q 143 153 143 182 q 143 96 143 124 l 143 96 q 143 34 143 63 q 142 -18 143 4 q 142 -53 142 -40 q 142 -66 142 -66 z"},"@":{"ha":679,"x_min":98,"x_max":630,"o":"m 630 246 l 630 246 q 622 179 630 211 q 598 124 614 148 q 560 86 583 100 q 506 72 537 72 l 506 72 q 455 89 476 72 q 424 137 434 105 l 424 137 q 381 90 405 105 q 335 75 357 75 l 335 75 q 302 82 316 75 q 276 100 287 88 q 260 128 266 112 q 255 163 255 144 l 255 163 q 268 232 255 202 q 302 281 281 261 q 348 311 323 301 q 396 321 373 321 l 396 321 q 420 318 409 321 q 440 311 432 315 q 455 302 449 306 q 464 295 461 297 l 464 295 q 469 289 467 292 q 472 280 472 285 l 472 280 q 466 267 472 273 q 453 261 461 261 l 453 261 q 443 265 447 261 q 433 273 439 269 q 418 281 427 278 q 392 285 409 285 l 392 285 q 361 278 378 285 q 328 256 344 271 q 302 219 313 242 q 292 164 292 196 l 292 164 q 296 141 292 151 q 305 124 299 131 q 319 113 311 117 q 335 109 327 109 l 335 109 q 384 135 363 109 q 413 211 406 161 l 413 211 q 418 223 414 218 q 430 228 423 228 l 430 228 q 443 222 438 228 q 449 210 448 217 l 449 210 q 451 183 449 200 q 459 148 453 165 q 477 118 465 131 q 508 105 488 105 l 508 105 q 537 113 522 105 q 564 137 552 121 q 584 181 576 154 q 592 246 592 208 l 592 246 q 578 312 592 280 q 537 369 564 344 q 472 409 511 394 q 384 424 433 424 l 384 424 q 281 404 327 424 q 202 349 235 384 q 152 268 169 314 q 134 167 134 221 l 134 167 q 150 90 134 125 q 195 27 167 54 q 260 -15 223 0 q 342 -31 298 -31 l 342 -31 q 386 -28 372 -31 q 405 -26 401 -26 l 405 -26 q 418 -31 414 -26 q 422 -42 422 -35 l 422 -42 q 415 -54 422 -49 q 398 -62 409 -59 q 373 -65 387 -64 q 346 -66 359 -66 l 346 -66 q 255 -51 299 -66 q 175 -5 210 -35 q 119 69 140 25 q 98 167 98 112 l 98 167 q 119 283 98 229 q 177 376 140 336 q 268 437 215 415 q 384 459 321 459 l 384 459 q 484 443 438 459 q 561 397 529 426 q 612 330 594 369 q 630 246 630 291 z"},"^":{"ha":306,"x_min":49,"x_max":257,"o":"m 167 696 l 254 573 q 257 563 257 568 l 257 563 q 252 552 257 557 q 241 547 248 547 l 241 547 q 228 554 232 547 l 228 554 l 153 659 l 78 554 q 65 547 73 547 l 65 547 q 54 552 59 547 q 49 563 49 557 l 49 563 q 52 573 49 569 l 52 573 l 141 696 q 154 703 146 703 l 154 703 q 167 696 163 703 l 167 696 z"},"~":{"ha":366,"x_min":34,"x_max":332,"o":"m 292 388 l 292 388 q 308 382 300 388 q 320 365 315 375 q 329 345 326 356 q 332 327 332 335 l 332 327 q 326 296 332 311 q 310 268 321 280 q 284 249 299 256 q 249 242 268 242 l 249 242 q 215 250 229 242 q 192 270 202 258 q 174 296 182 282 q 158 322 166 310 q 140 342 149 333 q 116 350 130 350 l 116 350 q 103 347 110 350 q 88 337 95 344 q 76 318 82 330 q 71 287 71 306 l 71 287 q 72 273 71 279 q 73 265 73 268 l 73 265 q 68 252 73 258 q 54 247 63 247 l 54 247 q 38 255 42 247 q 34 286 34 264 l 34 286 q 41 327 34 309 q 59 358 47 345 q 85 379 70 372 q 116 386 100 386 l 116 386 q 152 378 137 386 q 177 358 167 370 q 197 333 188 347 q 213 307 205 318 q 232 287 222 295 q 255 279 242 279 l 255 279 q 275 284 268 279 q 288 296 283 289 q 294 311 292 303 q 295 326 295 319 l 295 326 q 292 339 295 333 q 285 350 289 345 q 277 360 281 355 q 274 370 274 364 l 274 370 q 279 383 274 377 q 292 388 285 388 z"},"/":{"ha":488,"x_min":26,"x_max":462,"o":"m 457 669 l 61 -9 q 45 -19 55 -19 l 45 -19 q 31 -13 37 -19 q 26 0 26 -7 l 26 0 q 28 7 26 4 q 31 13 29 10 l 31 13 l 428 692 q 435 699 430 697 q 444 702 439 702 l 444 702 q 457 696 452 702 q 462 683 462 690 l 462 683 q 460 676 462 680 q 457 669 458 672 l 457 669 z"},"\\":{"ha":488,"x_min":26,"x_max":462,"o":"m 61 692 l 459 9 q 462 0 462 5 l 462 0 q 457 -13 462 -7 q 444 -19 452 -19 l 444 -19 q 428 -9 433 -19 l 428 -9 l 29 674 q 26 683 26 677 l 26 683 q 31 696 26 689 q 44 702 36 702 l 44 702 q 61 692 55 702 l 61 692 z"},"'":{"ha":122,"x_min":36,"x_max":86,"o":"m 84 666 l 73 572 q 66 561 72 565 q 54 556 61 556 l 54 556 q 42 562 47 556 q 36 575 36 567 l 36 575 q 36 579 36 577 q 37 585 37 582 l 37 585 l 49 687 q 56 698 50 694 q 68 703 61 703 l 68 703 q 81 697 76 703 q 86 684 86 691 l 86 684 q 85 676 86 682 q 84 666 84 669 l 84 666 z"},"\"":{"ha":197,"x_min":36,"x_max":161,"o":"m 160 678 l 143 567 q 136 556 142 561 q 124 552 131 552 l 124 552 q 111 558 116 552 q 106 572 106 563 l 106 572 q 107 580 106 575 l 107 580 l 125 688 q 131 698 125 694 q 143 703 136 703 l 143 703 q 156 697 151 703 q 161 685 161 692 l 161 685 q 160 678 161 683 l 160 678 z m 84 652 l 73 559 q 66 548 72 552 q 54 543 61 543 l 54 543 q 42 548 47 543 q 36 562 36 554 l 36 562 q 36 566 36 564 q 37 572 37 568 l 37 572 l 49 673 q 56 685 50 681 q 68 689 61 689 l 68 689 q 81 684 76 689 q 86 671 86 678 l 86 671 q 85 662 86 669 q 84 652 84 656 l 84 652 z"},"&":{"ha":543,"x_min":29,"x_max":641,"o":"m 641 226 l 641 226 q 636 214 641 219 q 622 208 631 208 l 622 208 q 607 209 615 208 q 585 209 600 209 l 585 209 q 564 209 578 209 q 531 207 549 208 q 492 203 513 205 q 449 200 471 202 l 449 200 q 450 192 450 197 l 450 192 q 429 108 450 145 q 374 46 408 71 q 294 8 339 21 q 200 -5 249 -5 l 200 -5 q 134 5 165 -5 q 79 33 103 15 q 43 79 56 52 q 29 140 29 105 l 29 140 q 41 191 29 168 q 71 233 52 215 q 117 264 90 251 q 174 284 143 277 l 174 284 q 156 295 165 288 q 138 312 146 302 q 125 335 130 322 q 120 363 120 348 l 120 363 q 137 428 120 400 q 180 473 154 455 q 239 500 207 491 q 301 509 271 509 l 301 509 q 350 503 327 509 q 389 486 373 497 q 415 459 405 475 q 424 424 424 443 l 424 424 q 418 393 424 408 q 401 368 412 379 q 375 351 390 357 q 342 345 360 345 l 342 345 q 315 350 327 345 q 294 361 303 354 q 282 375 286 368 q 277 387 277 382 l 277 387 q 282 400 277 395 q 295 405 288 405 l 295 405 q 304 403 301 405 q 310 396 307 400 l 310 396 q 322 385 314 391 q 344 379 329 379 l 344 379 q 363 383 355 379 q 376 392 371 386 q 384 406 381 398 q 387 421 387 414 l 387 421 q 382 439 387 430 q 366 456 376 449 q 340 468 356 463 q 302 472 324 472 l 302 472 q 255 466 280 472 q 208 448 229 460 q 172 415 186 435 q 157 369 157 396 l 157 369 q 163 339 157 351 q 180 319 169 327 q 206 307 191 312 q 239 299 221 302 l 239 299 q 252 296 246 297 q 262 293 258 295 q 270 287 267 291 q 272 277 272 283 l 272 277 q 267 264 272 269 q 253 260 262 260 l 253 260 q 228 259 245 260 q 190 254 210 258 q 147 242 169 250 q 107 221 125 234 q 78 188 89 208 q 66 141 66 168 l 66 141 q 77 92 66 113 q 105 58 87 71 q 148 38 124 44 q 200 31 172 31 l 200 31 q 277 41 239 31 q 346 70 315 50 q 395 119 376 89 q 414 189 414 149 l 414 189 q 413 193 414 191 q 413 197 413 194 l 413 197 q 365 192 387 194 q 332 189 344 190 l 332 189 q 325 188 328 188 q 321 188 323 188 l 321 188 q 307 193 313 188 q 301 207 301 198 l 301 207 q 306 219 301 214 q 318 225 311 224 l 318 225 q 355 229 333 227 q 404 234 377 231 q 459 238 431 236 q 513 242 487 240 q 560 245 539 244 q 594 246 581 246 l 594 246 q 631 241 621 246 q 641 226 641 236 z"},"(":{"ha":344,"x_min":73,"x_max":344,"o":"m 341 767 l 341 767 q 344 756 344 761 l 344 756 q 342 748 344 752 q 335 741 340 743 l 335 741 q 325 733 335 740 q 299 712 315 726 q 263 678 283 699 q 222 631 243 658 q 181 570 201 604 q 145 495 161 536 q 119 408 129 455 q 110 309 110 362 l 110 309 q 121 181 110 237 q 149 82 132 125 q 187 8 167 39 q 224 -41 207 -22 q 252 -70 241 -61 q 264 -79 264 -79 l 264 -79 q 272 -95 272 -85 l 272 -95 q 267 -108 272 -103 q 254 -113 261 -113 l 254 -113 q 244 -110 249 -113 l 244 -110 q 229 -99 242 -109 q 197 -68 215 -89 q 156 -13 178 -46 q 116 66 134 20 q 85 172 98 112 q 73 309 73 232 l 73 309 q 84 420 73 368 q 113 515 95 472 q 152 594 130 559 q 194 655 173 629 l 194 655 q 238 706 216 684 q 276 742 259 727 q 304 764 293 756 q 315 772 314 771 l 315 772 q 325 775 320 775 l 325 775 q 341 767 335 775 z"},")":{"ha":344,"x_min":0,"x_max":271,"o":"m 271 351 l 271 351 q 260 239 271 291 q 231 144 249 187 q 192 65 213 100 q 150 3 170 30 l 150 3 q 106 -47 127 -25 q 68 -83 84 -68 q 40 -105 51 -98 q 28 -113 29 -113 l 28 -113 q 19 -116 24 -116 l 19 -116 q 6 -111 12 -116 q 0 -98 0 -106 l 0 -98 q 8 -82 0 -88 l 8 -82 q 19 -74 9 -82 q 45 -54 29 -67 q 81 -20 61 -40 q 122 28 101 1 q 163 89 143 56 q 199 163 183 123 q 224 250 215 204 q 234 351 234 297 l 234 351 q 223 478 234 421 q 194 577 211 534 q 157 650 177 620 q 120 700 137 681 q 92 729 103 720 q 80 738 80 738 l 80 738 q 71 753 71 745 l 71 753 q 77 767 71 762 q 90 772 83 772 l 90 772 q 100 769 95 772 l 100 769 q 115 758 102 768 q 147 726 128 748 q 188 672 166 705 q 228 594 209 640 q 258 487 246 547 q 271 351 271 427 z"},"[":{"ha":344,"x_min":98,"x_max":320,"o":"m 319 789 l 319 789 q 320 783 320 785 l 320 783 q 308 765 320 771 l 308 765 q 296 760 302 763 q 280 756 289 758 q 259 752 271 753 q 230 749 247 750 l 230 749 q 191 746 210 747 q 158 745 171 746 l 158 745 q 156 693 158 732 q 154 600 155 655 q 150 479 152 546 q 146 344 148 413 q 142 207 144 274 q 139 82 140 139 q 136 -19 137 24 q 135 -81 135 -62 l 135 -81 q 178 -70 157 -74 q 216 -66 200 -66 l 216 -66 q 241 -70 233 -66 q 250 -85 250 -74 l 250 -85 q 244 -98 250 -93 q 231 -104 239 -104 l 231 -104 q 226 -103 230 -104 q 217 -103 222 -103 l 217 -103 q 203 -104 211 -103 q 186 -106 195 -104 l 186 -106 q 143 -117 160 -110 q 116 -124 127 -124 l 116 -124 q 103 -119 109 -124 q 98 -105 98 -114 l 98 -105 q 98 -89 98 -105 q 98 -43 98 -72 q 99 27 99 -14 q 101 117 100 68 q 104 223 102 167 q 108 341 105 280 l 108 341 q 114 509 111 432 q 118 643 116 586 q 121 731 120 699 q 122 764 122 763 l 122 764 q 127 777 122 771 q 140 782 133 782 l 140 782 q 148 782 140 782 q 169 782 156 782 q 197 783 181 783 q 228 786 212 784 l 228 786 q 257 790 244 787 q 278 794 269 792 q 292 799 287 797 q 301 801 298 801 l 301 801 q 312 798 307 801 q 319 789 316 794 z"},"]":{"ha":344,"x_min":24,"x_max":247,"o":"m 25 -113 l 25 -113 q 24 -107 24 -109 l 24 -107 q 36 -89 24 -95 l 36 -89 q 49 -84 42 -87 q 64 -80 55 -82 q 85 -76 73 -78 q 114 -73 98 -74 l 114 -73 q 153 -70 134 -71 q 186 -69 173 -70 l 186 -69 q 188 -18 187 -56 q 190 75 189 21 q 194 196 192 130 q 198 332 196 263 q 202 469 200 401 q 206 594 204 537 q 208 695 207 652 q 209 756 209 737 l 209 756 q 166 746 188 750 q 128 742 144 742 l 128 742 q 103 746 111 742 q 95 761 95 750 l 95 761 q 100 774 95 769 q 113 779 105 779 l 113 779 q 118 779 114 779 q 127 779 123 779 l 127 779 q 141 780 133 779 q 158 782 149 780 l 158 782 q 201 793 185 786 q 228 800 218 800 l 228 800 q 241 795 235 800 q 247 781 247 790 l 247 781 q 247 764 247 781 q 246 719 247 748 q 245 649 246 689 q 243 558 244 608 q 240 452 242 509 q 236 335 239 396 l 236 335 q 230 167 233 244 q 226 33 228 89 q 223 -56 224 -23 q 222 -88 222 -88 l 222 -88 q 217 -101 222 -96 q 204 -106 211 -106 l 204 -106 q 196 -106 204 -106 q 176 -107 188 -106 q 147 -108 163 -107 q 117 -110 132 -108 l 117 -110 q 87 -114 100 -111 q 66 -119 75 -116 q 52 -123 58 -121 q 43 -125 46 -125 l 43 -125 q 33 -122 38 -125 q 25 -113 28 -119 z"},"{":{"ha":408,"x_min":88,"x_max":383,"o":"m 383 732 l 383 732 q 378 719 383 725 q 365 713 374 713 l 365 713 q 359 714 361 713 q 354 717 356 715 l 354 717 q 339 726 350 720 q 308 731 329 731 l 308 731 q 278 724 295 731 q 245 703 261 718 q 219 662 229 688 q 208 600 208 637 l 208 600 q 212 541 208 568 q 220 489 216 513 q 229 446 225 465 q 233 414 233 427 l 233 414 q 227 381 233 396 q 212 356 221 367 q 192 337 203 345 q 171 327 181 330 l 171 327 q 192 310 182 319 q 209 288 202 300 q 222 261 217 276 q 227 229 227 247 l 227 229 q 221 172 227 204 q 208 107 215 140 q 195 43 201 75 q 188 -13 188 12 l 188 -13 q 192 -32 188 -25 q 199 -43 195 -40 q 208 -48 204 -47 q 217 -48 213 -48 l 217 -48 q 230 -45 225 -48 q 239 -38 235 -42 q 247 -31 243 -34 q 257 -28 251 -28 l 257 -28 q 270 -34 265 -28 q 275 -46 275 -40 l 275 -46 q 269 -62 275 -55 q 254 -75 263 -70 q 235 -83 245 -80 q 216 -85 225 -85 l 216 -85 q 191 -81 203 -85 q 170 -66 179 -76 q 156 -43 161 -57 q 151 -12 151 -30 l 151 -12 q 157 42 151 10 q 171 106 164 73 q 184 170 178 139 q 190 227 190 202 l 190 227 q 184 257 190 243 q 167 281 177 271 q 146 299 158 292 q 125 312 135 307 q 108 319 115 316 q 101 321 102 321 l 101 321 q 91 328 95 323 q 88 339 88 333 l 88 339 q 93 352 88 347 q 106 357 99 357 l 106 357 q 112 356 109 357 q 128 355 116 355 l 128 355 q 152 359 140 355 q 174 370 164 363 q 190 389 184 378 q 196 413 196 399 l 196 413 q 192 443 196 425 q 184 484 188 460 q 175 536 179 507 q 171 601 171 565 l 171 601 q 186 679 171 647 q 222 731 201 711 q 266 760 243 751 q 307 768 290 768 l 307 768 q 335 765 323 768 q 357 757 348 761 q 371 750 366 753 q 377 746 376 747 l 377 746 q 383 732 383 740 z"},"}":{"ha":408,"x_min":24,"x_max":320,"o":"m 24 -49 l 24 -49 q 29 -36 24 -42 q 42 -30 34 -30 l 42 -30 q 49 -31 46 -30 q 54 -35 52 -33 l 54 -35 q 69 -43 58 -38 q 100 -48 79 -48 l 100 -48 q 130 -42 113 -48 q 163 -20 147 -35 q 189 20 178 -5 q 200 83 200 45 l 200 83 q 196 142 200 114 q 187 194 192 170 q 179 236 183 217 q 175 269 175 255 l 175 269 q 181 302 175 287 q 196 327 187 316 q 216 345 205 338 q 236 356 227 352 l 236 356 q 216 373 226 363 q 198 395 206 383 q 186 421 190 407 q 181 453 181 436 l 181 453 q 187 511 181 479 q 200 575 193 542 q 213 639 207 608 q 219 695 219 670 l 219 695 q 216 715 219 708 q 208 726 213 722 q 199 730 204 729 q 191 731 194 731 l 191 731 q 177 728 183 731 q 168 721 172 725 q 161 714 165 717 q 151 710 157 710 l 151 710 q 137 716 143 710 q 132 729 132 722 l 132 729 q 138 745 132 738 q 154 757 145 752 q 173 765 163 762 q 191 768 183 768 l 191 768 q 217 763 205 768 q 238 749 229 758 q 251 726 247 740 q 256 695 256 712 l 256 695 q 253 661 256 680 q 246 620 250 642 q 237 577 242 599 q 228 533 232 555 q 220 492 223 512 q 217 456 217 472 l 217 456 q 224 426 217 439 q 240 402 230 412 q 261 384 250 391 q 282 371 272 376 q 299 364 292 366 q 307 361 306 361 l 307 361 q 316 354 313 359 q 320 344 320 350 l 320 344 q 314 330 320 335 q 302 325 309 325 l 302 325 q 295 326 299 325 q 280 328 292 328 l 280 328 q 256 324 268 328 q 234 312 244 320 q 218 294 224 305 q 211 270 211 283 l 211 270 q 215 240 211 257 q 224 199 219 222 q 232 147 229 176 q 236 82 236 118 l 236 82 q 222 3 236 35 q 186 -49 207 -29 q 142 -77 165 -68 q 101 -85 118 -85 l 101 -85 q 72 -82 85 -85 q 51 -75 60 -79 q 36 -67 42 -71 q 31 -63 31 -64 l 31 -63 q 24 -49 24 -58 z"},"*":{"ha":280,"x_min":39,"x_max":242,"o":"m 160 684 l 157 619 l 217 642 q 224 643 221 643 l 224 643 q 236 638 230 643 q 242 625 242 633 l 242 625 q 230 608 242 613 l 230 608 l 167 583 l 209 529 q 213 518 213 523 l 213 518 q 208 504 213 510 q 194 499 202 499 l 194 499 q 180 506 185 499 l 180 506 l 135 563 l 85 510 q 72 504 80 504 l 72 504 q 58 510 63 504 q 53 523 53 516 l 53 523 q 58 536 53 531 l 58 536 l 107 586 l 48 619 q 39 635 39 624 l 39 635 q 44 648 39 643 q 57 653 50 653 l 57 653 q 66 651 61 653 l 66 651 l 120 621 l 123 685 q 129 698 124 692 q 141 703 134 703 l 141 703 q 155 697 149 703 q 160 684 160 692 l 160 684 z"},".":{"ha":180,"x_min":63,"x_max":116,"o":"m 116 14 l 116 14 q 109 -5 116 3 q 90 -12 101 -12 l 90 -12 q 71 -5 79 -12 q 63 14 63 3 l 63 14 q 71 32 63 25 q 90 40 79 40 l 90 40 q 109 32 101 40 q 116 14 116 25 z"},",":{"ha":180,"x_min":24,"x_max":105,"o":"m 105 18 l 105 18 q 94 -50 105 -17 q 56 -109 84 -83 l 56 -109 q 43 -115 50 -115 l 43 -115 q 30 -110 36 -115 q 24 -97 24 -104 l 24 -97 q 30 -83 24 -89 l 30 -83 q 58 -40 48 -64 q 68 17 68 -15 l 68 17 q 73 30 68 24 q 86 36 78 36 l 86 36 q 99 31 93 36 q 105 18 104 26 z"},":":{"ha":229,"x_min":88,"x_max":141,"o":"m 141 14 l 141 14 q 133 -5 141 3 q 114 -12 125 -12 l 114 -12 q 95 -5 103 -12 q 88 14 88 3 l 88 14 q 95 32 88 25 q 114 40 103 40 l 114 40 q 133 32 125 40 q 141 14 141 25 z m 141 209 l 141 209 q 133 191 141 198 q 114 183 125 183 l 114 183 q 95 191 103 183 q 88 209 88 198 l 88 209 q 95 228 88 220 q 114 235 103 235 l 114 235 q 133 228 125 235 q 141 209 141 220 z"},";":{"ha":229,"x_min":49,"x_max":139,"o":"m 139 209 l 139 209 q 132 191 139 198 q 113 183 124 183 l 113 183 q 94 191 102 183 q 86 209 86 198 l 86 209 q 94 228 86 220 q 113 235 102 235 l 113 235 q 132 228 124 235 q 139 209 139 220 z m 129 18 l 129 18 q 119 -50 129 -17 q 81 -109 108 -83 l 81 -109 q 67 -115 74 -115 l 67 -115 q 55 -110 61 -115 q 49 -97 49 -104 l 49 -97 q 54 -83 49 -89 l 54 -83 q 83 -40 73 -64 q 93 17 93 -15 l 93 17 q 97 30 93 24 q 110 36 102 36 l 110 36 q 123 31 118 36 q 129 18 129 26 z"},"!":{"ha":261,"x_min":98,"x_max":164,"o":"m 164 683 l 147 129 q 141 117 146 122 q 128 112 136 112 l 128 112 l 128 112 q 115 117 120 112 q 110 131 110 123 l 110 131 l 126 684 q 132 697 127 691 q 146 702 138 702 l 146 702 q 158 696 153 701 q 164 683 164 690 l 164 683 z m 150 11 l 150 11 q 143 -8 150 0 q 124 -16 135 -16 l 124 -16 q 105 -8 113 -16 q 98 11 98 0 l 98 11 q 105 30 98 22 q 124 37 113 37 l 124 37 q 143 30 135 37 q 150 11 150 22 z"},"?":{"ha":775,"x_min":29,"x_max":746,"o":"m 356 727 l 356 727 q 537 706 462 727 q 657 650 611 685 q 725 571 704 615 q 746 479 746 526 l 746 479 q 730 402 746 440 q 683 338 714 365 l 683 338 q 625 298 657 316 q 560 264 593 280 q 493 233 526 249 q 431 202 459 218 q 381 166 403 185 q 350 123 360 147 l 350 123 q 333 112 345 112 l 333 112 q 320 117 325 112 q 315 130 315 123 l 315 130 q 316 137 315 133 l 316 137 q 354 189 330 167 q 407 229 377 211 q 472 261 438 247 q 539 291 506 276 q 604 323 573 306 q 658 362 634 340 q 695 413 681 384 q 709 480 709 441 l 709 480 q 693 552 709 521 q 650 606 677 583 q 587 646 623 629 q 512 671 551 662 q 433 686 473 681 q 356 690 393 690 l 356 690 q 238 678 292 690 q 146 643 185 666 q 87 588 108 621 q 66 514 66 555 l 66 514 q 77 459 66 483 q 109 418 89 435 q 155 393 128 402 q 210 385 181 385 l 210 385 q 256 391 234 385 q 295 408 278 396 l 295 408 q 305 411 300 411 l 305 411 q 318 406 313 411 q 324 392 324 400 l 324 392 q 311 373 324 381 q 281 359 298 365 q 243 351 263 354 q 209 348 223 348 l 209 348 q 134 361 167 348 q 77 396 101 374 q 42 449 54 418 q 29 515 29 479 l 29 515 q 53 603 29 564 q 120 670 77 643 q 223 712 163 697 q 356 727 283 727 z m 352 11 l 352 11 q 344 -8 352 0 q 325 -16 336 -16 l 325 -16 q 306 -8 314 -16 q 299 11 299 0 l 299 11 q 306 30 299 22 q 325 37 314 37 l 325 37 q 344 30 336 37 q 352 11 352 22 z"},"-":{"ha":366,"x_min":117,"x_max":322,"o":"m 322 171 l 322 171 q 318 157 322 163 q 305 151 313 152 l 305 151 l 137 143 q 123 147 129 142 q 117 160 117 151 l 117 160 q 122 173 117 167 q 135 179 126 179 l 135 179 l 303 188 q 316 184 311 188 q 322 171 322 179 z"},"_":{"ha":303,"x_min":0,"x_max":303,"o":"m 303 -84 l 303 -84 q 298 -97 303 -92 q 285 -103 293 -103 l 285 -103 l 20 -103 q 6 -98 12 -103 q 0 -85 0 -94 l 0 -85 q 5 -72 0 -78 q 18 -66 9 -67 l 18 -66 l 283 -66 q 297 -71 291 -66 q 303 -84 303 -76 z"},"`":{"ha":244,"x_min":67,"x_max":177,"o":"m 172 313 l 172 313 q 177 301 177 308 l 177 301 q 173 290 177 295 q 161 285 168 285 l 161 285 q 150 290 155 285 l 150 290 l 72 364 q 67 375 67 368 l 67 375 q 72 387 67 382 q 83 392 77 392 l 83 392 q 94 387 89 392 l 94 387 l 172 313 z"},"C":{"ha":849,"x_min":29,"x_max":820,"o":"m 817 181 l 817 181 q 755 108 794 144 q 666 42 716 71 q 557 -5 616 13 q 435 -22 498 -22 l 435 -22 q 337 -14 386 -22 q 242 13 288 -5 q 158 59 197 31 q 91 124 120 86 q 46 209 62 162 q 29 316 29 257 l 29 316 q 46 424 29 373 q 93 519 63 476 q 165 598 124 563 q 256 658 207 633 q 360 696 305 683 q 472 709 415 709 l 472 709 q 590 694 535 709 q 687 652 646 679 q 753 587 729 625 q 777 503 777 549 l 777 503 q 757 421 777 460 q 702 353 737 382 q 620 307 667 324 q 521 290 574 290 l 521 290 q 446 300 479 290 q 391 329 413 311 q 358 373 369 348 q 347 426 347 397 l 347 426 q 354 470 347 450 q 371 504 362 490 q 388 526 380 518 q 397 535 396 534 l 397 535 q 403 538 399 538 q 409 539 406 539 l 409 539 q 422 534 417 539 q 427 521 427 529 l 427 521 q 421 507 427 513 l 421 507 q 414 500 420 506 q 401 484 408 494 q 389 458 395 473 q 383 426 383 444 l 383 426 q 396 379 383 398 q 428 348 408 360 q 473 331 448 336 q 521 326 497 326 l 521 326 q 607 341 567 326 q 676 380 646 355 q 723 436 706 404 q 740 502 740 468 l 740 502 q 719 572 740 541 q 661 626 697 604 q 575 660 624 648 q 470 672 526 672 l 470 672 q 382 662 428 672 q 291 632 336 652 q 205 583 246 612 q 134 513 165 553 q 85 424 103 473 q 66 316 66 375 l 66 316 q 81 220 66 263 q 123 143 96 177 q 184 85 149 110 q 260 45 220 61 q 346 22 301 29 q 434 14 390 14 l 434 14 q 547 31 493 14 q 647 73 601 47 q 729 133 693 100 q 786 200 765 167 l 786 200 q 792 207 788 205 q 802 209 797 209 l 802 209 q 815 203 810 209 q 820 191 820 198 l 820 191 q 819 186 820 188 q 817 181 819 184 z"},"A":{"ha":1057,"x_min":-49,"x_max":1077,"o":"m 955 2 l 955 2 q 957 -6 957 -1 l 957 -6 q 952 -19 957 -13 q 938 -24 947 -24 l 938 -24 q 929 -21 933 -24 q 922 -14 925 -19 l 922 -14 q 906 31 913 4 q 894 91 899 58 q 885 163 889 125 q 880 242 882 201 l 880 242 q 798 231 844 237 q 694 218 752 226 l 694 218 q 610 208 653 212 l 610 208 q 390 35 506 94 q 159 -24 275 -24 l 159 -24 q 69 -14 107 -24 q 7 9 31 -4 q -31 32 -18 21 q -44 43 -43 42 l -44 43 q -49 56 -49 48 l -49 56 q -43 69 -49 64 q -31 75 -38 75 l -31 75 q -17 69 -22 75 l -17 69 q -5 59 -16 68 q 27 40 5 50 q 81 21 48 29 q 158 13 113 13 l 158 13 q 276 29 220 13 q 382 73 332 46 q 475 133 432 99 q 554 203 519 167 l 554 203 q 485 198 519 200 q 417 197 451 197 l 417 197 q 293 204 352 197 q 189 229 234 211 q 117 275 144 246 q 91 347 91 304 l 91 347 q 99 386 91 366 q 118 421 107 405 q 142 447 129 437 q 163 457 154 457 l 163 457 q 175 452 169 457 q 181 439 181 447 l 181 439 q 179 430 181 435 q 173 424 177 426 l 173 424 q 165 417 172 423 q 149 401 158 411 q 134 377 141 391 q 127 347 127 363 l 127 347 q 147 298 127 319 q 203 262 166 277 q 293 241 240 248 q 416 233 347 233 l 416 233 q 500 236 456 233 q 592 243 543 238 l 592 243 q 634 292 616 269 q 665 333 652 315 l 665 333 q 708 396 686 363 q 754 465 731 430 q 799 533 777 500 q 839 597 820 567 q 874 652 858 627 q 898 693 889 677 l 898 693 q 907 717 901 706 q 926 728 913 728 l 926 728 q 940 722 934 728 q 947 707 947 716 l 947 707 q 942 692 947 700 q 933 679 938 684 l 933 679 q 928 639 932 669 q 922 565 925 609 q 917 469 919 521 q 915 363 915 417 l 915 363 q 915 323 915 343 q 916 284 915 304 l 916 284 q 1022 297 989 293 q 1058 300 1056 300 l 1058 300 q 1071 295 1064 300 q 1077 282 1077 290 l 1077 282 q 1072 270 1077 275 q 1060 264 1067 265 l 1060 264 q 1040 261 1051 263 q 1011 258 1028 260 q 971 253 994 256 q 917 247 948 250 l 917 247 q 922 170 918 207 q 929 101 925 133 q 940 44 934 69 q 955 2 947 19 z m 689 254 l 689 254 q 794 268 747 262 q 879 279 841 274 l 879 279 q 878 321 878 300 q 878 364 878 342 l 878 364 q 880 495 878 433 q 887 604 883 558 l 887 604 q 844 536 868 574 q 795 460 820 499 q 744 383 770 421 q 694 312 718 345 l 694 312 q 670 280 683 295 q 646 249 658 264 l 646 249 q 667 251 657 250 q 689 254 678 253 z"},"B":{"ha":1152,"x_min":29,"x_max":1098,"o":"m 917 339 l 917 339 q 989 313 959 328 q 1038 281 1018 297 q 1070 248 1059 265 q 1088 215 1082 230 q 1096 186 1095 199 q 1098 163 1098 172 l 1098 163 q 1085 102 1098 129 q 1050 55 1072 75 q 999 20 1028 34 q 938 -3 970 6 q 874 -16 907 -12 q 811 -21 840 -21 l 811 -21 q 711 -11 762 -21 q 606 21 659 -1 l 606 21 q 595 38 595 26 l 595 38 q 601 52 595 46 q 613 57 606 57 l 613 57 q 621 55 617 57 l 621 55 q 714 26 666 36 q 810 17 762 17 l 810 17 q 923 29 876 17 q 1001 63 971 42 q 1046 110 1032 83 q 1061 163 1061 136 l 1061 163 q 1045 218 1061 192 q 998 263 1028 243 q 926 297 968 283 q 833 318 884 312 l 833 318 q 768 310 799 313 q 709 308 736 308 l 709 308 l 698 308 q 691 308 694 308 l 691 308 q 608 162 656 224 q 504 60 559 101 q 391 1 449 20 q 280 -19 333 -19 l 280 -19 q 179 -3 225 -19 q 100 41 133 12 q 48 109 66 69 q 29 199 29 149 l 29 199 q 50 306 29 251 q 110 419 70 362 l 110 419 q 194 515 148 473 q 292 590 241 558 q 397 646 343 623 q 505 683 451 668 q 609 704 558 698 q 705 711 660 711 l 705 711 q 775 708 742 711 q 838 701 808 706 l 838 701 q 867 729 856 721 q 879 739 877 738 l 879 739 q 889 742 885 742 l 889 742 q 901 738 896 742 q 907 727 907 734 l 907 727 q 900 710 907 717 q 881 692 893 704 l 881 692 q 1018 626 971 670 q 1065 517 1065 582 l 1065 517 q 1054 453 1065 481 q 1022 403 1042 425 q 974 366 1001 382 q 917 339 947 350 z m 833 355 l 833 355 q 878 366 855 359 q 922 381 900 372 q 963 403 944 390 q 997 432 983 415 q 1020 470 1012 449 q 1029 518 1029 491 l 1029 518 q 983 608 1029 572 q 853 661 938 644 l 853 661 q 807 594 829 630 q 768 518 786 557 q 735 438 750 479 q 711 360 721 398 l 711 360 q 729 361 721 361 q 744 361 738 361 l 744 361 q 785 360 763 361 q 833 355 808 358 z m 812 667 l 812 667 q 760 672 787 671 q 705 674 734 674 l 705 674 q 614 667 662 674 q 515 647 565 661 q 412 612 464 634 q 312 560 361 590 q 220 489 264 529 q 140 397 176 448 l 140 397 q 84 295 103 346 q 66 200 66 245 l 66 200 q 81 124 66 157 q 125 67 97 90 q 193 31 153 43 q 280 19 232 19 l 280 19 q 380 36 328 19 q 481 89 432 53 q 575 180 530 125 q 652 311 619 235 l 652 311 q 634 316 644 311 q 625 332 625 321 l 625 332 q 636 349 625 344 q 671 357 647 354 l 671 357 q 698 438 685 397 q 729 517 712 478 q 765 594 745 556 q 812 667 785 631 z"}}}
